<svg width="165" height="164" viewBox="0 0 165 164" fill="none" xmlns="http://www.w3.org/2000/svg">
<g clip-path="url(#clip0_22_155)">
<path d="M72.1686 151.789L72.1382 151.911C71.8348 151.835 71.5617 151.911 71.319 152.109C71.0763 152.322 70.8487 152.626 70.6363 153.021C70.4239 153.416 70.1964 153.903 69.9991 154.466C69.7867 155.028 69.5592 155.606 69.3164 156.23C69.1192 156.701 68.9068 157.248 68.6641 157.872C68.4213 158.495 68.1786 159.119 67.9359 159.742C67.6931 160.366 67.4656 160.974 67.2532 161.537C67.0408 162.114 66.8587 162.571 66.7222 162.936C66.798 163.148 66.8891 163.316 67.0104 163.437C67.1318 163.559 67.2532 163.635 67.3745 163.696C67.5111 163.772 67.6476 163.818 67.7993 163.833L67.7538 163.985L65.3871 163.377C65.2961 162.251 65.2051 161.187 65.1141 160.183C65.023 159.18 64.932 158.191 64.8258 157.248C64.7348 156.29 64.6286 155.363 64.5224 154.435C64.4162 153.508 64.3252 152.565 64.2038 151.592L58.454 161.597L56.3452 161.05L56.3907 160.898C56.3907 160.898 56.5121 160.944 56.5728 160.944C56.6183 160.944 56.679 160.944 56.7397 160.944C56.8003 160.944 56.861 160.913 56.9217 160.883C56.9976 160.837 57.0734 160.776 57.1341 160.7C57.1948 160.624 57.2706 160.518 57.3465 160.381C57.4072 160.244 57.4679 160.062 57.5286 159.849C57.5892 159.621 57.6499 159.347 57.6954 158.997C57.7561 158.526 57.832 158.009 57.9078 157.461C57.9837 156.914 58.0444 156.351 58.1051 155.789C58.1657 155.226 58.2264 154.663 58.2871 154.116C58.3478 153.568 58.4085 153.051 58.4692 152.58C58.545 151.941 58.636 151.379 58.6967 150.877C58.7574 150.375 58.8029 149.934 58.7877 149.584C58.7726 149.235 58.6967 148.931 58.5754 148.702C58.454 148.474 58.2113 148.322 57.8927 148.246L57.923 148.125L61.7764 149.113L61.7461 149.235C61.4579 149.159 61.2151 149.159 61.0179 149.235C60.8207 149.326 60.669 149.478 60.5324 149.691C60.4111 149.904 60.3048 150.193 60.2138 150.527C60.138 150.862 60.0621 151.257 59.9863 151.683C59.9407 152.002 59.8801 152.398 59.8194 152.839C59.7587 153.28 59.698 153.766 59.6222 154.268C59.5463 154.785 59.4856 155.317 59.4098 155.865C59.3339 156.412 59.2732 156.959 59.2125 157.492C59.1519 158.024 59.0912 158.526 59.0305 159.012C58.9698 159.484 58.9243 159.91 58.8788 160.29L64.1431 151.12C64.1128 150.877 64.0824 150.649 64.0673 150.406C64.0521 150.162 64.0218 149.934 63.9914 149.691L65.3265 150.041C65.4175 150.816 65.4933 151.546 65.5692 152.215C65.6451 152.884 65.7209 153.538 65.7968 154.162C65.8726 154.785 65.9333 155.393 66.0092 156.001C66.0698 156.61 66.1457 157.248 66.2064 157.902C66.2671 158.556 66.3277 159.256 66.4036 159.986C66.4795 160.715 66.5401 161.521 66.616 162.388C66.7677 161.993 66.9346 161.521 67.1166 160.989C67.3139 160.457 67.5111 159.894 67.7083 159.316C67.9207 158.739 68.1179 158.161 68.3151 157.583C68.5124 157.005 68.6944 156.488 68.8613 156.001C69.0282 155.53 69.1647 155.12 69.2709 154.77C69.3771 154.435 69.453 154.207 69.4681 154.086C69.4985 153.994 69.5288 153.857 69.5743 153.705C69.6199 153.553 69.6654 153.356 69.6957 153.143C69.7261 152.945 69.7412 152.732 69.7412 152.504C69.7412 152.276 69.6957 152.078 69.6199 151.881C69.544 151.683 69.4226 151.5 69.2406 151.348C69.0585 151.181 68.8158 151.059 68.4972 150.983L68.5275 150.862L72.1534 151.789H72.1686Z" fill="#BBAB8B"/>
<path d="M56.2996 149.387C56.0114 150.01 55.6018 150.436 55.0708 150.694C54.5398 150.953 53.9481 151.12 53.2806 151.196C52.6131 151.288 51.9152 151.333 51.1718 151.333C50.4285 151.333 49.7002 151.409 49.0024 151.531C48.9417 151.896 48.8962 152.23 48.8507 152.519C48.8052 152.808 48.8052 153.051 48.8203 153.264C48.8507 153.477 48.8962 153.66 48.9872 153.797C49.0782 153.949 49.2148 154.055 49.3968 154.146C49.6547 154.268 49.9582 154.298 50.2767 154.238C50.5953 154.177 50.9291 154.086 51.2629 153.994C51.5966 153.888 51.9152 153.812 52.2338 153.736C52.5524 153.675 52.8406 153.69 53.0834 153.812C53.2806 153.903 53.4171 154.055 53.493 154.238C53.5689 154.42 53.5385 154.618 53.402 154.8C53.2806 154.891 53.0834 154.952 52.7951 154.983C52.5069 155.028 52.1731 155.028 51.7787 154.998C51.3994 154.967 50.9898 154.907 50.565 154.815C50.1402 154.724 49.7306 154.572 49.3361 154.39C48.7596 154.116 48.3652 153.751 48.1528 153.31C47.9404 152.869 47.8342 152.367 47.819 151.82C47.819 151.272 47.8646 150.695 47.9859 150.071C48.1073 149.448 48.2135 148.839 48.2893 148.231C48.4107 147.334 48.5017 146.589 48.5776 146.011C48.6534 145.433 48.6838 144.962 48.6534 144.597C48.6383 144.232 48.5624 143.958 48.4259 143.76C48.2893 143.563 48.0769 143.395 47.7887 143.259L47.8494 143.137L49.6244 143.973C49.7609 144.034 49.8671 144.11 49.943 144.201C50.0188 144.277 50.0643 144.399 50.0795 144.521C50.0947 144.658 50.0795 144.825 50.0795 145.038C50.0795 145.251 50.0037 145.509 49.9582 145.828C49.9582 145.92 49.9126 146.087 49.8823 146.33C49.8368 146.574 49.7913 146.863 49.7306 147.197C49.6699 147.532 49.6092 147.881 49.5485 148.261C49.4879 148.642 49.4272 149.007 49.3665 149.341C49.7609 148.748 50.2009 148.216 50.656 147.744C51.1263 147.273 51.6118 146.908 52.1124 146.619C52.6131 146.345 53.1289 146.163 53.6447 146.117C54.1605 146.057 54.6763 146.148 55.1922 146.391C55.5107 146.543 55.7838 146.741 55.981 146.954C56.1783 147.167 56.33 147.41 56.421 147.668C56.512 147.927 56.5424 148.201 56.512 148.474C56.4969 148.748 56.421 149.022 56.2845 149.296L56.2996 149.387ZM55.0253 149.052C55.2073 148.657 55.2377 148.292 55.1163 147.912C54.9949 147.547 54.737 147.273 54.3426 147.091C53.9481 146.908 53.5537 146.832 53.1592 146.863C52.7648 146.908 52.4007 147.015 52.0366 147.197C51.6725 147.38 51.3387 147.623 51.0201 147.912C50.7015 148.201 50.4133 148.505 50.1705 148.824C49.9278 149.128 49.7154 149.448 49.5485 149.737C49.3817 150.025 49.2603 150.284 49.1844 150.482C49.1693 150.618 49.1389 150.755 49.1237 150.877C49.0934 151.014 49.0631 151.135 49.0479 151.288C49.6396 151.166 50.2312 151.075 50.8532 151.014C51.4601 150.953 52.0518 150.847 52.5827 150.725C53.1137 150.603 53.6144 150.406 54.0392 150.162C54.4639 149.919 54.7977 149.554 55.0253 149.067V149.052Z" fill="#BBAB8B"/>
<path d="M45.6496 146.68C45.2096 147.349 44.6787 147.881 44.087 148.246C43.4953 148.611 42.8733 148.855 42.221 148.976C41.5838 149.098 40.9314 149.083 40.2942 148.976C39.6571 148.855 39.0502 148.642 38.5041 148.337C38.4737 148.444 38.4434 148.52 38.413 148.596C38.3827 148.672 38.3675 148.733 38.3523 148.794C38.322 148.854 38.3068 148.915 38.2917 148.976C38.1855 149.326 38.0944 149.645 38.0186 149.904C37.9427 150.162 37.882 150.406 37.8517 150.603C37.8214 150.801 37.8365 150.968 37.882 151.12C37.9276 151.257 38.0489 151.394 38.2158 151.5C38.3372 151.592 38.4737 151.652 38.5951 151.698C38.7164 151.744 38.8682 151.805 39.035 151.865L38.9592 151.972C38.7316 151.911 38.4889 151.865 38.2613 151.82C38.0186 151.774 37.791 151.728 37.5635 151.698C37.3511 151.652 37.1538 151.607 36.9718 151.576C36.7897 151.546 36.6684 151.485 36.5773 151.424C36.456 151.348 36.3953 151.257 36.3498 151.166C36.3194 151.059 36.3043 150.953 36.3194 150.816C36.3346 150.679 36.3801 150.542 36.4256 150.39C36.4711 150.238 36.5318 150.071 36.5925 149.889C36.8504 149.159 37.1083 148.429 37.3511 147.699C37.5635 147.091 37.791 146.421 38.0186 145.722C38.2461 145.023 38.4585 144.384 38.6558 143.821C38.8378 143.259 39.035 142.666 39.2474 142.027C39.475 141.403 39.6419 140.795 39.7784 140.233C39.915 139.67 39.9605 139.168 39.9453 138.727C39.9301 138.286 39.7632 137.967 39.4598 137.769L39.5357 137.663L40.9314 138.59C41.2197 138.773 41.3562 139.062 41.3562 139.411C41.3562 139.776 41.2804 140.202 41.1286 140.704C41.69 140.461 42.2968 140.339 42.9492 140.339C43.6015 140.339 44.2235 140.537 44.8304 140.947C45.4069 141.327 45.8468 141.753 46.1199 142.225C46.393 142.696 46.5599 143.167 46.5902 143.684C46.6205 144.186 46.5599 144.703 46.393 145.22C46.2261 145.737 45.9682 146.239 45.6496 146.726V146.68ZM44.4511 146.345C44.7393 145.92 44.9669 145.448 45.149 144.962C45.331 144.475 45.4372 143.973 45.4524 143.502C45.4676 143.03 45.3917 142.559 45.1945 142.133C44.9973 141.708 44.6938 141.343 44.2539 141.054C43.996 140.886 43.7381 140.765 43.4498 140.689C43.1767 140.628 42.9037 140.597 42.6306 140.597C42.3575 140.597 42.0844 140.643 41.8113 140.719C41.5383 140.795 41.2804 140.886 41.0376 140.993C40.9769 141.191 40.9011 141.388 40.8252 141.601C40.7494 141.814 40.6735 142.027 40.5825 142.24C40.2184 143.198 39.8694 144.171 39.5357 145.144C39.2171 146.117 38.8985 147.091 38.5799 148.064C39.1109 148.383 39.6571 148.55 40.2184 148.596C40.7797 148.626 41.3107 148.566 41.8417 148.383C42.3727 148.201 42.8581 147.942 43.2981 147.592C43.7381 147.243 44.1173 146.832 44.4359 146.345H44.4511Z" fill="#BBAB8B"/>
<path d="M36.8201 141.312C36.3801 141.814 35.8643 142.209 35.2878 142.483C34.7113 142.757 34.1044 142.909 33.4824 142.939C32.8604 142.97 32.2384 142.894 31.6316 142.696C31.0247 142.498 30.4634 142.179 29.9628 141.738C29.4621 141.297 29.098 140.856 28.8856 140.385C28.658 139.928 28.5367 139.487 28.4912 139.062C28.4608 138.651 28.4912 138.271 28.6125 137.921C28.7339 137.571 28.8704 137.298 29.0525 137.085C29.2345 136.872 29.4166 136.75 29.6138 136.674C29.811 136.613 29.9931 136.598 30.1751 136.629C30.3572 136.659 30.5393 136.735 30.7213 136.842C30.9034 136.948 31.0551 137.07 31.2068 137.191L35.576 141.023C35.9857 140.552 36.2739 140.035 36.4408 139.472C36.6077 138.91 36.6835 138.347 36.638 137.769C36.5925 137.191 36.4408 136.659 36.1829 136.142C35.925 135.625 35.576 135.169 35.1361 134.773C34.8023 134.485 34.4534 134.256 34.0893 134.089C33.71 133.922 33.3459 133.815 32.9666 133.77C32.5873 133.724 32.2232 133.724 31.8591 133.8C31.495 133.861 31.1613 133.983 30.8578 134.135L30.7972 134.013C31.2219 133.724 31.6619 133.527 32.1474 133.405C32.6329 133.283 33.1183 133.238 33.6038 133.268C34.1044 133.298 34.5747 133.405 35.045 133.603C35.5153 133.785 35.9553 134.059 36.3498 134.409C36.8504 134.85 37.2297 135.351 37.5028 135.929C37.7758 136.507 37.9427 137.115 37.9882 137.739C38.0337 138.362 37.9579 138.986 37.7607 139.594C37.5634 140.202 37.26 140.765 36.8049 141.267L36.8201 141.312ZM32.7391 139.016C32.4811 138.788 32.2384 138.59 31.9805 138.377C31.7226 138.18 31.4799 138.028 31.2371 137.921C30.9944 137.815 30.7668 137.769 30.5393 137.769C30.3117 137.769 30.1145 137.891 29.9324 138.104C29.7048 138.362 29.5531 138.651 29.4773 138.955C29.4014 139.259 29.4014 139.563 29.4773 139.883C29.5531 140.202 29.6745 140.521 29.8869 140.841C30.0993 141.16 30.3724 141.464 30.7061 141.768C31.0702 142.088 31.4495 142.316 31.844 142.437C32.2384 142.559 32.648 142.605 33.0425 142.559C33.4521 142.513 33.8465 142.377 34.2562 142.164C34.6658 141.951 35.045 141.647 35.4092 141.267C35.1664 141.069 34.9388 140.871 34.7265 140.704C34.5141 140.537 34.3168 140.354 34.1044 140.187C33.892 140.02 33.6948 139.837 33.4673 139.64C33.2397 139.442 33.0121 139.244 32.7391 139.016Z" fill="#BBAB8B"/>
<path d="M18.9789 134.165C18.7665 133.907 18.6907 133.618 18.721 133.298C18.7514 132.979 18.8879 132.705 19.1458 132.508C19.4037 132.31 19.692 132.219 20.0106 132.249C20.3443 132.28 20.6022 132.432 20.8146 132.675C21.027 132.918 21.1029 133.222 21.0725 133.542C21.0422 133.861 20.8905 134.135 20.6326 134.332C20.3747 134.545 20.0864 134.621 19.7678 134.591C19.4492 134.561 19.1913 134.409 18.9789 134.165ZM29.5228 127.809L29.4166 127.885C29.2042 127.627 28.9766 127.49 28.7339 127.459C28.4912 127.444 28.2181 127.52 27.8995 127.687C27.5809 127.855 27.232 128.113 26.8375 128.448C26.4431 128.782 25.9728 129.162 25.4418 129.603C24.9108 130.044 24.4405 130.424 24.0309 130.744C23.6213 131.063 23.3027 131.367 23.0751 131.641C22.8475 131.915 22.711 132.173 22.6807 132.417C22.6503 132.66 22.7413 132.903 22.9537 133.177L22.8475 133.253C22.5745 132.934 22.2407 132.645 21.8311 132.417C21.4215 132.188 21.0118 132.006 20.5871 131.884C20.9663 131.58 21.3608 131.246 21.8007 130.896C22.18 130.592 22.6048 130.257 23.0903 129.862C23.5757 129.466 24.0764 129.056 24.6225 128.615C25.1535 128.174 25.6238 127.794 26.0334 127.474C26.4431 127.14 26.7465 126.851 26.9741 126.577C27.2016 126.304 27.3382 126.045 27.3685 125.817C27.3988 125.574 27.3078 125.33 27.0954 125.072L27.2016 124.996L29.5076 127.839L29.5228 127.809Z" fill="#BBAB8B"/>
<path d="M19.601 129.421C19.3734 129.071 19.07 128.752 18.6756 128.478C18.2963 128.204 17.9018 127.976 17.4922 127.809C17.7501 127.642 18.0232 127.459 18.3418 127.262C18.5997 127.094 18.9183 126.897 19.2672 126.669C19.6313 126.44 20.0106 126.182 20.4354 125.908C20.041 126.015 19.6162 126.091 19.161 126.136C18.7059 126.182 18.2508 126.197 17.826 126.136C17.386 126.091 16.9916 125.984 16.6275 125.817C16.2634 125.65 15.9751 125.406 15.7627 125.087C15.5655 124.783 15.5048 124.448 15.5807 124.114C15.6565 123.779 15.8234 123.43 16.051 123.08C16.2937 122.73 16.5668 122.38 16.8854 122.046C17.204 121.711 17.4922 121.377 17.7653 121.073C18.1446 120.632 18.5694 120.16 19.0245 119.674C19.4796 119.187 19.8741 118.7 20.223 118.244C20.5719 117.773 20.8147 117.332 20.9816 116.921C21.1333 116.511 21.1181 116.146 20.9209 115.842L21.0271 115.766L21.9373 117.18C22.0739 117.393 22.1194 117.621 22.0739 117.849C22.0284 118.077 21.907 118.335 21.7249 118.594C21.5429 118.852 21.3153 119.141 21.0422 119.446C20.7692 119.75 20.4657 120.069 20.1472 120.404C19.8741 120.692 19.5707 121.012 19.2369 121.362C18.9031 121.711 18.5997 122.031 18.3266 122.32C18.0384 122.624 17.7956 122.913 17.5681 123.186C17.3405 123.46 17.1585 123.703 17.0219 123.947C16.8854 124.19 16.8095 124.403 16.764 124.6C16.7337 124.798 16.764 124.981 16.8702 125.148C17.0523 125.422 17.3405 125.619 17.735 125.711C18.1294 125.817 18.5694 125.863 19.0548 125.832C19.5403 125.802 20.0106 125.726 20.4809 125.604C20.9512 125.482 21.3457 125.3 21.6643 125.102L21.8615 124.981C22.438 124.6 22.9386 124.281 23.3786 123.992C23.8185 123.703 24.1675 123.445 24.4254 123.201C24.6833 122.958 24.835 122.715 24.8957 122.487C24.9564 122.259 24.8957 122 24.7136 121.711L24.8198 121.635L26.8072 124.722L26.701 124.798C26.519 124.509 26.3066 124.357 26.0639 124.312C25.8211 124.266 25.548 124.312 25.2143 124.448C24.8805 124.585 24.5012 124.798 24.0764 125.087C23.6365 125.376 23.1358 125.711 22.5593 126.075C21.9828 126.456 21.467 126.775 21.0422 127.064C20.6023 127.338 20.2534 127.611 19.9954 127.855C19.7375 128.098 19.5858 128.341 19.5251 128.569C19.4645 128.813 19.5251 129.071 19.7072 129.345L19.601 129.421Z" fill="#BBAB8B"/>
<path d="M5.59814 112.755L5.71951 112.709C5.85605 113.013 6.02293 113.211 6.2505 113.302C6.47806 113.378 6.76631 113.393 7.11525 113.302C7.46418 113.226 7.8738 113.089 8.35927 112.892C8.84474 112.694 9.3909 112.451 10.0281 112.192L14.0029 110.519C14.6401 110.246 15.1862 110.018 15.6717 109.82C16.1572 109.622 16.5364 109.425 16.8399 109.227C17.1281 109.029 17.3405 108.832 17.4315 108.603C17.5377 108.391 17.5226 108.117 17.386 107.813L17.5074 107.767L18.9335 111.143L18.8121 111.189C18.6907 110.884 18.5087 110.687 18.2811 110.595C18.0536 110.504 17.7653 110.504 17.4164 110.58C17.0674 110.656 16.6578 110.793 16.1875 111.006C15.7172 111.219 15.1559 111.447 14.5187 111.721L10.5439 113.393C9.90671 113.667 9.34539 113.895 8.87508 114.093C8.38961 114.291 8.01034 114.488 7.70692 114.686C7.4035 114.884 7.22144 115.097 7.11525 115.309C7.02422 115.538 7.03939 115.796 7.16076 116.115L7.03939 116.161L5.61332 112.785L5.59814 112.755Z" fill="#BBAB8B"/>
<path d="M9.0874 109.987C8.95087 109.592 8.73847 109.196 8.45022 108.832C8.1468 108.467 7.82821 108.147 7.47928 107.889C7.81304 107.782 8.16197 107.661 8.55642 107.539C8.89018 107.433 9.28463 107.311 9.72459 107.174C10.1645 107.037 10.65 106.87 11.181 106.703C10.741 106.824 10.2707 106.87 9.7701 106.809C9.26946 106.763 8.78398 106.627 8.32885 106.429C7.87372 106.231 7.46411 105.958 7.1 105.608C6.7359 105.258 6.47799 104.863 6.34145 104.391C6.29594 104.239 6.25042 104.072 6.20491 103.874C6.1594 103.677 6.1594 103.494 6.20491 103.342C6.5235 103.099 6.82692 103.023 7.1 103.16C7.37308 103.281 7.5703 103.525 7.6765 103.874C7.72201 103.996 7.73718 104.118 7.75236 104.224C7.75236 104.33 7.75236 104.437 7.75236 104.543C7.75236 104.65 7.75235 104.771 7.76753 104.893C7.76753 105.015 7.81304 105.167 7.87372 105.349C7.99509 105.699 8.20749 105.973 8.52608 106.17C8.84467 106.368 9.23911 106.49 9.69425 106.551C10.1494 106.611 10.6348 106.611 11.181 106.551C11.712 106.49 12.243 106.368 12.774 106.201C13.3353 106.018 13.8359 105.851 14.2759 105.714C14.7159 105.577 15.08 105.425 15.3682 105.258C15.6565 105.091 15.8537 104.908 15.975 104.695C16.0812 104.483 16.0964 104.224 15.975 103.905L16.0964 103.859L17.2191 107.357L17.0977 107.402C16.9915 107.083 16.8398 106.87 16.6122 106.763C16.3847 106.657 16.1116 106.627 15.7627 106.672C15.4137 106.718 14.9889 106.824 14.5035 106.992C14.018 107.159 13.4415 107.341 12.7891 107.554C12.1368 107.767 11.5603 107.95 11.0596 108.102C10.559 108.254 10.1645 108.421 9.84596 108.588C9.52736 108.755 9.31497 108.953 9.20877 109.166C9.0874 109.379 9.0874 109.653 9.1936 109.972L9.07223 110.018L9.0874 109.987Z" fill="#BBAB8B"/>
<path d="M10.4679 101.533C9.81559 101.669 9.16324 101.669 8.54123 101.533C7.91921 101.396 7.34272 101.152 6.8269 100.803C6.31109 100.453 5.87113 100.012 5.50702 99.4797C5.14292 98.9474 4.90018 98.3696 4.76364 97.7157C4.6271 97.0619 4.61193 96.484 4.71813 95.9822C4.82433 95.4804 4.97604 95.0546 5.2036 94.7049C5.43117 94.3551 5.68907 94.0662 5.9925 93.8685C6.29592 93.6556 6.58417 93.534 6.84207 93.4732C7.09998 93.4123 7.34272 93.4276 7.52477 93.4884C7.70682 93.5492 7.8737 93.6556 7.99507 93.8077C8.11644 93.9446 8.22263 94.1118 8.29849 94.3095C8.37434 94.5072 8.43503 94.6897 8.46537 94.8874L9.6032 100.59C10.21 100.468 10.7562 100.24 11.2265 99.8902C11.712 99.5405 12.1064 99.1299 12.4098 98.6585C12.7133 98.1871 12.9257 97.6549 13.047 97.0923C13.1684 96.5296 13.1532 95.9518 13.047 95.374C12.956 94.9482 12.8195 94.5528 12.6222 94.1879C12.425 93.8381 12.1823 93.5188 11.9244 93.2603C11.6513 93.0018 11.363 92.7737 11.0293 92.6064C10.6955 92.4391 10.3769 92.3175 10.028 92.2567L10.0583 92.1198C10.559 92.1502 11.0444 92.2567 11.4996 92.4543C11.9547 92.652 12.3643 92.9105 12.7436 93.2299C13.1229 93.5492 13.4263 93.9294 13.6842 94.3703C13.9421 94.8113 14.1242 95.2827 14.2304 95.8149C14.3669 96.4688 14.3669 97.1075 14.2304 97.7309C14.0938 98.3544 13.8663 98.9322 13.5173 99.4493C13.1684 99.9663 12.7436 100.422 12.2126 100.787C11.6968 101.152 11.1051 101.411 10.4376 101.548L10.4679 101.533ZM8.61708 97.2291C8.5564 96.8946 8.48054 96.5753 8.40469 96.2711C8.32883 95.967 8.22263 95.6781 8.10127 95.45C7.9799 95.2219 7.82819 95.0394 7.63097 94.9026C7.44891 94.7809 7.22135 94.7353 6.94827 94.7961C6.59934 94.8722 6.31109 94.9938 6.06835 95.1915C5.82561 95.3892 5.62839 95.6325 5.49185 95.9214C5.35531 96.2255 5.26429 96.5601 5.23394 96.9402C5.2036 97.3204 5.23394 97.7309 5.32497 98.1719C5.416 98.6433 5.58288 99.0539 5.82561 99.3884C6.06835 99.7382 6.3566 100.012 6.70553 100.225C7.05447 100.438 7.44891 100.575 7.90404 100.651C8.35917 100.727 8.84465 100.711 9.36046 100.651C9.28461 100.346 9.22392 100.058 9.16324 99.7838C9.10255 99.5101 9.04187 99.2516 8.98119 98.9931C8.9205 98.7345 8.85982 98.4608 8.79913 98.1719C8.73845 97.883 8.67777 97.5789 8.60191 97.2291H8.61708Z" fill="#BBAB8B"/>
<path d="M13.1381 90.9945C13.1077 90.66 13.0015 90.4167 12.8043 90.2646C12.6071 90.1126 12.334 90.0213 11.9851 89.9909C11.6361 89.9605 11.1962 89.9757 10.6804 90.0213C10.1645 90.0822 9.55771 90.143 8.87501 90.2038L4.68781 90.6144C4.09614 90.6752 3.58033 90.7208 3.14037 90.7665C2.70041 90.8121 2.3363 90.8881 2.04805 90.9945C1.7598 91.101 1.54741 91.2378 1.41087 91.4203C1.27433 91.6028 1.22882 91.8461 1.25916 92.1502H1.13779C1.09228 91.7397 0.970911 91.3291 0.758517 90.9033C0.546122 90.4775 0.303386 90.0974 0.0151367 89.7628C0.424754 89.7172 0.864714 89.6868 1.35019 89.626C1.77497 89.5956 2.26045 89.5499 2.8066 89.5043C3.35276 89.4587 3.94443 89.3979 4.55127 89.3371L8.76881 88.9265C9.45151 88.8657 10.0584 88.8048 10.5742 88.7592C11.09 88.7136 11.5148 88.6376 11.8637 88.5311C12.2126 88.4247 12.4554 88.2878 12.6071 88.1206C12.7588 87.9533 12.8346 87.6796 12.8043 87.345H12.9257L13.2746 90.9793H13.1532L13.1381 90.9945Z" fill="#BBAB8B"/>
<path d="M10.7259 86.6151C10.0432 86.6151 9.48189 86.4022 9.02676 86.0373C8.57163 85.6571 8.17718 85.1857 7.82825 84.6079C7.47932 84.03 7.14555 83.4218 6.82696 82.7375C6.50837 82.0684 6.15944 81.4298 5.74982 80.8367C5.38571 80.9279 5.06712 81.0192 4.79405 81.1104C4.52097 81.1865 4.2934 81.2929 4.11135 81.3993C3.9293 81.5058 3.79276 81.6274 3.68656 81.7795C3.59553 81.9164 3.53485 82.0988 3.53485 82.2965C3.53485 82.5854 3.62588 82.8744 3.8231 83.1481C4.02032 83.4218 4.23272 83.6803 4.46028 83.9388C4.68785 84.1973 4.90024 84.4558 5.09747 84.7143C5.29469 84.9728 5.38571 85.2465 5.38571 85.5203C5.38571 85.7484 5.30986 85.9308 5.15815 86.0677C5.00644 86.2045 4.82439 86.2654 4.61199 86.2197C4.49062 86.1437 4.33891 85.9916 4.1872 85.7483C4.03549 85.505 3.88378 85.2009 3.74724 84.836C3.61071 84.471 3.50451 84.0757 3.41348 83.6499C3.32246 83.2241 3.29211 82.7831 3.29211 82.3573C3.29211 81.7187 3.459 81.2169 3.77759 80.8367C4.09618 80.4566 4.49062 80.1524 4.99127 79.9243C5.49191 79.6962 6.03807 79.4986 6.64491 79.3617C7.25175 79.2248 7.84342 79.0576 8.43509 78.8751C9.29984 78.6166 10.0129 78.4037 10.5742 78.2212C11.1355 78.0387 11.5755 77.8867 11.8789 77.7194C12.1975 77.5521 12.4099 77.3697 12.5313 77.1568C12.6526 76.9591 12.7133 76.6854 12.7285 76.3661H12.8499L12.8195 78.3277C12.8195 78.4797 12.7892 78.6166 12.7437 78.7078C12.6981 78.7991 12.6223 78.8903 12.5009 78.9663C12.3796 79.0424 12.2278 79.1032 12.0306 79.164C11.8334 79.2248 11.5755 79.3009 11.2569 79.3769C11.1659 79.4073 10.999 79.4529 10.7714 79.5138C10.5287 79.5746 10.2404 79.6506 9.92185 79.7419C9.60326 79.8331 9.25432 79.9243 8.87505 80.0156C8.51094 80.122 8.14684 80.2133 7.81308 80.3045C8.51094 80.4261 9.17847 80.5934 9.80048 80.8215C10.4225 81.0496 10.9535 81.3385 11.4238 81.6883C11.8789 82.038 12.2582 82.4334 12.5161 82.8896C12.7892 83.3457 12.9105 83.8476 12.9105 84.4102C12.9105 84.7751 12.8499 85.0945 12.7285 85.3682C12.6071 85.6419 12.4554 85.87 12.2582 86.0677C12.061 86.2502 11.8182 86.387 11.5603 86.4935C11.3024 86.5999 11.0142 86.6303 10.7259 86.6303V86.6151ZM10.4983 85.3226C10.9231 85.3226 11.2872 85.2009 11.5603 84.9272C11.8334 84.6535 11.9851 84.319 11.9851 83.878C11.9851 83.437 11.8941 83.0568 11.6969 82.7071C11.4996 82.3725 11.2417 82.0684 10.9383 81.8251C10.6349 81.5818 10.2708 81.3689 9.87634 81.1865C9.48189 81.0192 9.08744 80.8823 8.70817 80.7911C8.32889 80.6999 7.96479 80.6238 7.61585 80.5934C7.26692 80.563 6.99384 80.5478 6.79662 80.563C6.66008 80.6086 6.53871 80.639 6.40217 80.6694C6.26563 80.6999 6.14427 80.7303 6.00773 80.7607C6.35666 81.2473 6.69042 81.7643 7.00901 82.2965C7.3276 82.8287 7.6462 83.3153 7.99513 83.7563C8.32889 84.1973 8.70817 84.5623 9.10261 84.8664C9.49706 85.1553 9.96736 85.3074 10.5135 85.3226H10.4983Z" fill="#BBAB8B"/>
<path d="M4.39962 74.3588C4.47548 73.9483 4.46031 73.5073 4.35411 73.0359C4.26308 72.5797 4.11137 72.1387 3.92932 71.7433C4.23274 71.789 4.55133 71.8498 4.91544 71.9106C5.21886 71.9714 5.58296 72.0323 5.99258 72.1083C6.41737 72.1843 6.8725 72.2604 7.35797 72.3364C6.99387 72.1387 6.62976 71.9106 6.26566 71.6369C5.90155 71.3632 5.56779 71.0591 5.27954 70.7397C4.99129 70.4052 4.76373 70.0554 4.61202 69.6905C4.46031 69.3255 4.39962 68.9454 4.47548 68.5652C4.53616 68.2003 4.71821 67.9266 5.00646 67.7289C5.29471 67.5312 5.64365 67.3943 6.05326 67.2879C6.46288 67.1814 6.90284 67.1206 7.35797 67.0902C7.8131 67.0598 8.25306 67.0142 8.66268 66.9686C9.25435 66.9077 9.87636 66.8469 10.5439 66.7861C11.2114 66.7405 11.8183 66.6492 12.3947 66.5428C12.9712 66.4363 13.4415 66.2843 13.836 66.0866C14.2304 65.8889 14.458 65.6152 14.5187 65.2502H14.6401L14.3518 66.9229C14.3063 67.1814 14.1849 67.3791 14.0029 67.516C13.8057 67.6528 13.5629 67.7593 13.2443 67.8353C12.9257 67.9113 12.5768 67.957 12.1672 67.9874C11.7576 68.0178 11.3176 68.0482 10.8625 68.0786C10.468 68.109 10.0281 68.1394 9.5426 68.1699C9.05713 68.2003 8.61717 68.2307 8.22272 68.2611C7.8131 68.2915 7.41866 68.3371 7.08489 68.3827C6.73596 68.4284 6.43254 68.4892 6.17463 68.5804C5.91673 68.6565 5.70433 68.7629 5.53745 68.8998C5.37057 69.0214 5.27954 69.1735 5.2492 69.3712C5.18852 69.6905 5.27954 70.025 5.50711 70.3748C5.73467 70.7245 6.02292 71.0591 6.38703 71.3632C6.75113 71.6673 7.16075 71.941 7.58554 72.1539C8.0255 72.382 8.43511 72.5189 8.79922 72.5797L9.02678 72.6253C9.70948 72.747 10.3011 72.8382 10.817 72.9294C11.3328 73.0207 11.7576 73.0511 12.1217 73.0511C12.4706 73.0511 12.7589 72.975 12.9561 72.8534C13.1533 72.7165 13.2898 72.4884 13.3354 72.1539H13.4567L12.8347 75.7882H12.7133C12.774 75.4385 12.7133 75.1648 12.5768 74.9823C12.4251 74.7846 12.1975 74.6325 11.8638 74.5109C11.53 74.3892 11.1052 74.2828 10.5894 74.2068C10.0736 74.1307 9.48191 74.0243 8.79922 73.9026C8.11652 73.781 7.52485 73.6897 7.00904 73.5985C6.49322 73.5073 6.06843 73.4617 5.70433 73.4617C5.3554 73.4617 5.06715 73.5377 4.86992 73.6745C4.6727 73.8114 4.53616 74.0395 4.47548 74.374H4.35411L4.39962 74.3588Z" fill="#BBAB8B"/>
<path d="M10.6956 64.1554C9.9219 63.8969 9.28472 63.5471 8.7689 63.0605C8.25309 62.5891 7.85864 62.0569 7.57039 61.4639C7.28214 60.8708 7.11526 60.2474 7.05458 59.5935C6.99389 58.9396 7.05458 58.301 7.19112 57.6927C7.08492 57.6927 6.99389 57.6927 6.91804 57.6775C6.84218 57.6775 6.76633 57.6775 6.70564 57.6775C6.62979 57.6775 6.5691 57.6775 6.52359 57.6775C6.15949 57.6775 5.82572 57.6775 5.55265 57.6623C5.27957 57.6623 5.03683 57.6623 4.83961 57.6927C4.64239 57.7231 4.4755 57.7687 4.35414 57.86C4.23277 57.9512 4.14174 58.0881 4.08106 58.2858C4.03554 58.4378 4.0052 58.5747 3.99003 58.7115C3.99003 58.8484 3.95969 59.0004 3.95969 59.1829L3.83832 59.1373C3.83832 58.894 3.82315 58.6659 3.79281 58.4226C3.76247 58.1793 3.7473 57.9512 3.73212 57.7231C3.71695 57.495 3.70178 57.2973 3.70178 57.1149C3.70178 56.9324 3.70178 56.7955 3.7473 56.7043C3.79281 56.5674 3.85349 56.4762 3.94452 56.4154C4.03554 56.3546 4.14174 56.3089 4.26311 56.2937C4.38448 56.2785 4.53619 56.2785 4.70307 56.2937C4.86995 56.2937 5.03683 56.3089 5.23406 56.3089C6.00778 56.3546 6.7815 56.4154 7.54005 56.4458C8.1924 56.4914 8.8751 56.5218 9.61848 56.5674C10.3619 56.6131 11.0294 56.6435 11.6211 56.6587C12.2127 56.6739 12.8347 56.7043 13.5023 56.7499C14.1698 56.7955 14.7918 56.8107 15.3683 56.7803C15.9448 56.7499 16.4454 56.6739 16.8702 56.537C17.295 56.4002 17.5529 56.1569 17.6743 55.8071L17.7957 55.8527L17.2798 57.4494C17.1736 57.7839 16.9461 57.9816 16.5971 58.0881C16.2482 58.1793 15.8234 58.2249 15.2924 58.2097C15.6869 58.6963 15.96 59.2438 16.1268 59.8672C16.2937 60.4907 16.2786 61.1445 16.051 61.844C15.8386 62.5131 15.5503 63.0301 15.1711 63.4255C14.807 63.8208 14.3822 64.0946 13.8967 64.2618C13.4112 64.4291 12.9106 64.5051 12.3644 64.4747C11.8183 64.4443 11.2721 64.3379 10.7108 64.1554H10.6956ZM10.6956 62.9085C11.1811 63.0757 11.6969 63.167 12.2127 63.2126C12.7437 63.2582 13.2292 63.2126 13.6995 63.1062C14.1698 62.9845 14.5794 62.7868 14.9435 62.4979C15.3076 62.209 15.5655 61.8136 15.7324 61.2966C15.8234 61.0077 15.8689 60.7188 15.8689 60.4298C15.8689 60.1409 15.8083 59.8672 15.7324 59.6087C15.6565 59.3502 15.5352 59.0917 15.3986 58.8484C15.2621 58.6051 15.0952 58.377 14.9283 58.1641C14.7311 58.1641 14.5187 58.1337 14.2912 58.1185C14.0636 58.1033 13.836 58.0881 13.6085 58.0577C12.5768 57.9664 11.5604 57.8904 10.5439 57.8296C9.52745 57.7839 8.49582 57.7383 7.47937 57.6927C7.32766 58.301 7.29731 58.8636 7.41868 59.411C7.54005 59.9584 7.75244 60.4603 8.05586 60.9164C8.35928 61.3726 8.75373 61.768 9.20886 62.1025C9.66399 62.4371 10.1646 62.6956 10.7108 62.8629L10.6956 62.9085Z" fill="#BBAB8B"/>
<path d="M27.2471 39.1258L27.1561 39.0346C27.3837 38.8065 27.4595 38.5328 27.3988 38.2286C27.3381 37.9093 27.1864 37.5596 26.9437 37.1794C26.701 36.784 26.3975 36.3583 26.0031 35.9021C25.6238 35.4459 25.2294 34.9593 24.8198 34.4423C24.5012 34.0469 24.1371 33.5755 23.7123 33.0585C23.2875 32.5415 22.8779 32.0245 22.4531 31.4922C22.0283 30.96 21.6187 30.4734 21.2394 30.002C20.8601 29.5306 20.5415 29.1505 20.2836 28.8463C20.0712 28.8007 19.874 28.8007 19.7071 28.8463C19.5402 28.892 19.4189 28.9528 19.2975 29.0288C19.1761 29.1049 19.0548 29.2113 18.9637 29.333L18.8575 29.2265L20.5567 27.4778C21.5732 27.9492 22.5441 28.4054 23.4695 28.8159C24.395 29.2417 25.2901 29.6371 26.1548 30.0172C27.0196 30.3974 27.8843 30.7775 28.749 31.1577C29.5986 31.5379 30.4785 31.9028 31.3585 32.283L25.5176 22.3228L27.0347 20.7566L27.1409 20.863C27.1409 20.863 27.0499 20.9543 27.0044 20.9999C26.974 21.0455 26.9437 21.0911 26.9134 21.152C26.883 21.2128 26.8678 21.2736 26.8678 21.3344C26.8678 21.4257 26.883 21.5169 26.9134 21.6081C26.9437 21.7146 27.0044 21.821 27.0802 21.9427C27.1561 22.0643 27.2926 22.2164 27.4595 22.3837C27.6264 22.5509 27.8388 22.7334 28.1119 22.9463C28.4911 23.2352 28.9008 23.5546 29.3407 23.8891C29.7807 24.2236 30.2358 24.5582 30.6909 24.8927C31.1461 25.2272 31.6012 25.5618 32.0412 25.8811C32.4811 26.2005 32.9059 26.5046 33.2852 26.7935C33.801 27.1737 34.2561 27.5234 34.6506 27.8427C35.045 28.1621 35.4091 28.3902 35.7277 28.5574C36.0463 28.7247 36.3346 28.8159 36.6076 28.8007C36.8655 28.8007 37.1083 28.6791 37.351 28.4358L37.442 28.527L34.6809 31.3858L34.5899 31.2946C34.8023 31.0817 34.9085 30.8688 34.9388 30.6559C34.9692 30.443 34.9085 30.2301 34.7871 30.002C34.6657 29.7891 34.4685 29.5458 34.2106 29.3177C33.9527 29.0896 33.6645 28.8159 33.3155 28.5574C33.0576 28.3597 32.7542 28.1164 32.3901 27.8427C32.0412 27.569 31.6467 27.2801 31.2523 26.9608C30.8578 26.6414 30.4179 26.3221 29.9779 25.9876C29.5379 25.653 29.098 25.3337 28.6732 25.0144C28.2484 24.695 27.8388 24.3909 27.4595 24.102C27.0802 23.8131 26.7313 23.5546 26.4279 23.3417L31.7681 32.4654C31.9956 32.5567 32.208 32.6479 32.4204 32.7544C32.6328 32.8456 32.8604 32.952 33.0728 33.0433L32.117 34.0317C31.404 33.7124 30.7365 33.4234 30.1144 33.1649C29.4924 32.9064 28.9008 32.6479 28.3243 32.3894C27.7478 32.1461 27.1864 31.9028 26.6251 31.6595C26.0638 31.4162 25.4873 31.1577 24.8804 30.884C24.2736 30.6103 23.6364 30.3214 22.9689 30.0172C22.3014 29.7131 21.5732 29.3786 20.7843 29.0136C21.0573 29.3329 21.3759 29.7131 21.7552 30.1541C22.1345 30.5799 22.5138 31.0361 22.9082 31.5075C23.3027 31.9788 23.7123 32.435 24.1067 32.8912C24.5012 33.3474 24.8653 33.7732 25.199 34.1533C25.5328 34.5335 25.821 34.8528 26.0638 35.1266C26.3065 35.3851 26.4734 35.5523 26.5493 35.6284C26.6099 35.6892 26.7161 35.7956 26.8375 35.9173C26.9589 36.0389 27.0954 36.1606 27.2623 36.2974C27.4292 36.4343 27.5961 36.5407 27.7933 36.6472C27.9905 36.7536 28.1877 36.8297 28.4001 36.8449C28.6125 36.8601 28.8249 36.8449 29.0525 36.784C29.28 36.7232 29.5076 36.5559 29.7352 36.3278L29.8262 36.4191L27.2319 39.1106L27.2471 39.1258Z" fill="#BBAB8B"/>
<path d="M37.169 26.5046C36.7746 25.9419 36.6077 25.3793 36.638 24.7863C36.6835 24.1932 36.8201 23.6002 37.078 22.9767C37.3359 22.3533 37.6393 21.7146 37.9883 21.0759C38.3524 20.4221 38.6406 19.753 38.8833 19.0839C38.5951 18.8406 38.3372 18.6429 38.1096 18.4604C37.8821 18.278 37.6697 18.1563 37.4724 18.0651C37.2752 17.989 37.0932 17.9434 36.9263 17.9434C36.7594 17.9434 36.5925 18.0043 36.4105 18.1259C36.1677 18.2932 36.0008 18.5365 35.8946 18.8558C35.7885 19.1751 35.6974 19.4945 35.6216 19.829C35.5457 20.1635 35.4547 20.4829 35.3637 20.8022C35.2726 21.1215 35.1058 21.3496 34.8782 21.5017C34.6961 21.6234 34.4989 21.6842 34.3017 21.6538C34.1045 21.6234 33.9528 21.5017 33.8617 21.2888C33.8466 21.1368 33.8921 20.9391 33.9983 20.6654C34.1045 20.3916 34.2713 20.1027 34.4837 19.7834C34.6961 19.4641 34.954 19.1447 35.2423 18.8102C35.5457 18.4909 35.8643 18.2019 36.2132 17.9434C36.7291 17.5785 37.2449 17.4112 37.7303 17.4416C38.2158 17.472 38.7013 17.6241 39.1868 17.8826C39.6722 18.1411 40.1425 18.4756 40.6128 18.8862C41.0831 19.2968 41.5686 19.6769 42.0693 20.0571C42.7823 20.6045 43.374 21.0455 43.8443 21.3953C44.3146 21.745 44.709 22.0035 45.0276 22.1556C45.3462 22.3076 45.6344 22.3837 45.862 22.3685C46.1047 22.3533 46.3475 22.2468 46.6054 22.0643L46.6812 22.1708L45.0731 23.296C44.9517 23.3873 44.8304 23.4481 44.7242 23.4633C44.618 23.4937 44.4966 23.4633 44.3752 23.4177C44.2539 23.3721 44.1022 23.2808 43.9353 23.144C43.7684 23.0223 43.556 22.8551 43.3133 22.6422C43.2374 22.5814 43.1161 22.4749 42.9188 22.3228C42.7216 22.1708 42.494 21.9731 42.2361 21.7602C41.9782 21.5473 41.69 21.3192 41.4017 21.0759C41.0983 20.8326 40.8101 20.6045 40.5522 20.3764C40.8707 21.0151 41.1135 21.6538 41.2955 22.2924C41.4776 22.9311 41.5534 23.5393 41.5534 24.1172C41.5534 24.695 41.4472 25.2272 41.2348 25.7138C41.0225 26.2005 40.6887 26.5958 40.2336 26.9151C39.9301 27.128 39.6419 27.2649 39.3536 27.3257C39.0654 27.4017 38.7771 27.4017 38.5192 27.3561C38.2462 27.3105 38.0034 27.2041 37.7759 27.0368C37.5483 26.8847 37.3511 26.6718 37.169 26.4438V26.5046ZM38.0793 25.5618C38.322 25.9115 38.6406 26.1244 39.0199 26.2004C39.3992 26.2765 39.7633 26.1852 40.1122 25.9267C40.4763 25.6682 40.7342 25.3641 40.8859 25.0144C41.0376 24.6494 41.1287 24.2692 41.1438 23.8739C41.159 23.4785 41.1287 23.0527 41.0225 22.6422C40.9163 22.2316 40.8101 21.821 40.6583 21.4561C40.5066 21.0911 40.3398 20.7566 40.1729 20.4525C39.9908 20.1635 39.8391 19.9355 39.7026 19.7682C39.5964 19.6922 39.4902 19.6009 39.384 19.5097C39.2778 19.4184 39.1868 19.3272 39.0806 19.236C38.8985 19.8138 38.6709 20.3764 38.4282 20.9391C38.1855 21.5017 37.9882 22.0643 37.8214 22.5966C37.6697 23.1288 37.5786 23.6458 37.5786 24.1476C37.5786 24.6494 37.7303 25.1056 38.0489 25.5618H38.0793Z" fill="#BBAB8B"/>
<path d="M44.7545 18.5517C44.3904 17.837 44.1932 17.1223 44.1628 16.4228C44.1325 15.7233 44.2387 15.0695 44.4511 14.446C44.6635 13.8225 44.9821 13.2599 45.4069 12.7581C45.8316 12.2563 46.3019 11.8457 46.8481 11.5264C46.7722 11.4504 46.7116 11.3743 46.6661 11.3135C46.6054 11.2527 46.5599 11.2071 46.5143 11.1614C46.4688 11.1006 46.4233 11.055 46.393 11.0246C46.1351 10.7661 45.9075 10.5228 45.7254 10.3251C45.5434 10.1274 45.3613 9.96014 45.2096 9.83849C45.0579 9.71684 44.891 9.64081 44.7545 9.61039C44.6028 9.57998 44.4359 9.61039 44.2539 9.71684C44.1173 9.79287 43.996 9.8689 43.8898 9.96014C43.7836 10.0514 43.6622 10.1426 43.5257 10.2643L43.465 10.1426C43.6318 9.97534 43.7836 9.79287 43.9504 9.61039C44.1021 9.42792 44.2539 9.24544 44.4056 9.06297C44.5573 8.88049 44.6786 8.74363 44.8 8.60678C44.9214 8.46992 45.0276 8.39389 45.1186 8.34827C45.24 8.28744 45.3613 8.25703 45.4675 8.28744C45.5737 8.30265 45.6799 8.34827 45.7861 8.43951C45.8923 8.53075 45.9985 8.62198 46.1047 8.74363C46.2109 8.86528 46.3323 9.00214 46.4688 9.139C46.9695 9.71684 47.4853 10.3099 48.0011 10.8877C48.4259 11.3743 48.8962 11.8913 49.3817 12.454C49.8671 13.0014 50.3223 13.5032 50.7319 13.9442C51.1263 14.3852 51.5511 14.8414 51.9911 15.3432C52.431 15.845 52.8558 16.286 53.2806 16.6813C53.7054 17.0767 54.115 17.3656 54.5095 17.5633C54.9039 17.761 55.268 17.7762 55.5866 17.6241L55.6473 17.7458L54.1454 18.5061C53.8419 18.6581 53.5234 18.6429 53.2199 18.4757C52.9013 18.2932 52.5676 18.0195 52.2186 17.6393C52.158 18.2476 51.9607 18.8406 51.6421 19.4033C51.3236 19.9659 50.8381 20.4069 50.1857 20.7414C49.5637 21.0607 48.9872 21.228 48.4411 21.228C47.9101 21.228 47.4094 21.1368 46.9543 20.9239C46.4992 20.711 46.0896 20.3917 45.7254 19.9963C45.3613 19.5857 45.0428 19.1295 44.7848 18.5973L44.7545 18.5517ZM45.6344 17.6697C45.862 18.1259 46.1502 18.5669 46.4992 18.9623C46.8329 19.3728 47.2122 19.6922 47.6218 19.9355C48.0314 20.194 48.4714 20.3308 48.9265 20.3917C49.3817 20.4525 49.852 20.346 50.3223 20.1027C50.5953 19.9659 50.8381 19.7834 51.0353 19.5857C51.2325 19.388 51.3842 19.16 51.5208 18.9166C51.6573 18.6733 51.7483 18.4148 51.8242 18.1563C51.9001 17.8826 51.9456 17.6241 51.9759 17.3504C51.8394 17.1983 51.7028 17.0311 51.5511 16.8638C51.4146 16.6965 51.2629 16.5141 51.1112 16.3316C50.4588 15.5256 49.7913 14.7501 49.1086 13.9898C48.4259 13.2295 47.7432 12.4692 47.0453 11.7089C46.5143 12.0282 46.0896 12.4084 45.7861 12.8797C45.4827 13.3511 45.2703 13.853 45.1641 14.4004C45.0579 14.9478 45.0428 15.4952 45.1338 16.0579C45.2248 16.6205 45.3917 17.1527 45.6496 17.6697H45.6344Z" fill="#BBAB8B"/>
<path d="M53.7965 13.488C53.5841 12.8493 53.493 12.2107 53.5385 11.572C53.5841 10.9333 53.7509 10.3403 54.024 9.77766C54.2971 9.21502 54.6764 8.71322 55.1467 8.28744C55.617 7.84646 56.1631 7.52712 56.8003 7.31424C57.4223 7.10135 57.9988 7.01011 58.4995 7.04052C59.0153 7.07094 59.4552 7.17738 59.8345 7.34465C60.2138 7.51192 60.5324 7.74001 60.7751 8.01373C61.0179 8.28744 61.1847 8.54595 61.2758 8.80445C61.3668 9.06296 61.3971 9.29106 61.3516 9.48874C61.3061 9.68642 61.2303 9.85369 61.1089 10.0058C60.9875 10.1578 60.8358 10.2795 60.6538 10.3707C60.4717 10.4771 60.2896 10.5532 60.1076 10.614L54.6309 12.5148C54.8281 13.1078 55.1315 13.6096 55.5411 14.0354C55.9507 14.4612 56.4059 14.7957 56.9217 15.039C57.4375 15.2823 57.9837 15.4192 58.5602 15.4496C59.1367 15.48 59.7132 15.404 60.2593 15.2063C60.6689 15.0695 61.0482 14.8718 61.3668 14.6285C61.6854 14.3852 61.9736 14.1115 62.2012 13.8073C62.4288 13.5032 62.5956 13.1839 62.717 12.8341C62.8384 12.4844 62.8991 12.1346 62.9294 11.8001H63.0659C63.1115 12.3171 63.0659 12.8037 62.9294 13.2903C62.7929 13.7617 62.5956 14.2179 62.3226 14.6285C62.0495 15.039 61.7157 15.404 61.3213 15.7233C60.9268 16.0427 60.4717 16.286 59.9711 16.4532C59.349 16.6661 58.7119 16.7574 58.0747 16.7117C57.4375 16.6661 56.8307 16.5141 56.2693 16.2403C55.708 15.9666 55.2074 15.6017 54.7674 15.1303C54.3274 14.6589 54.0089 14.1115 53.7813 13.4728L53.7965 13.488ZM57.8016 11.0702C58.1202 10.9637 58.4236 10.8421 58.727 10.7204C59.0305 10.5988 59.2884 10.4619 59.5008 10.2947C59.7132 10.1426 59.8649 9.96013 59.9711 9.76245C60.0773 9.56477 60.0773 9.33667 59.9711 9.07817C59.8497 8.74363 59.6828 8.46992 59.4552 8.25703C59.2277 8.04414 58.9698 7.89208 58.6512 7.78563C58.3326 7.67919 57.9988 7.64877 57.6196 7.66398C57.2403 7.69439 56.8458 7.77043 56.421 7.92249C55.9659 8.07455 55.5866 8.30265 55.2832 8.59157C54.9798 8.88049 54.7371 9.19982 54.5853 9.57998C54.4336 9.96013 54.3426 10.3707 54.3274 10.8269C54.3123 11.2831 54.3881 11.7697 54.5398 12.2715C54.8433 12.165 55.1163 12.0586 55.3591 11.9522C55.617 11.8609 55.8597 11.7545 56.1176 11.6632C56.3755 11.572 56.6334 11.4808 56.9065 11.3743C57.1796 11.2831 57.483 11.1766 57.8168 11.055L57.8016 11.0702Z" fill="#BBAB8B"/>
<path d="M69.0737 13.8225V13.7009C69.3771 13.6401 69.6198 13.5184 69.7564 13.3207C69.8929 13.1231 69.9688 12.8341 69.9688 12.4844C69.9688 12.1346 69.9384 11.6937 69.8474 11.1766C69.7564 10.6596 69.6502 10.0666 69.544 9.3823C69.4378 8.69802 69.3316 8.10497 69.2557 7.58796C69.1799 7.07094 69.0737 6.64517 68.9523 6.31063C68.8309 5.97609 68.6792 5.73279 68.482 5.59593C68.2848 5.44387 68.0269 5.39825 67.6931 5.45907V5.33742C68.0876 5.2766 68.4972 5.10933 68.9068 4.86603C69.3164 4.62273 69.6654 4.34901 69.9839 4.04489C70.0598 4.51628 70.1508 5.0333 70.2418 5.58072C70.3177 6.05212 70.3936 6.59955 70.4998 7.2078C70.606 7.81605 70.7121 8.46992 70.8183 9.15421C70.9245 9.83849 71.0307 10.4315 71.1218 10.9486C71.2128 11.4656 71.3038 11.8913 71.4252 12.2259C71.5466 12.5604 71.6983 12.8037 71.8955 12.9406C72.0927 13.0926 72.3506 13.1383 72.6844 13.0774V13.1991L69.0889 13.8073L69.0737 13.8225ZM68.7854 1.49023C69.104 1.4294 69.4074 1.49023 69.6653 1.68791C69.9384 1.87039 70.0901 2.12889 70.1508 2.44823C70.2115 2.76756 70.1508 3.07168 69.9384 3.33019C69.7412 3.6039 69.4985 3.75597 69.1647 3.81679C68.8461 3.87762 68.5427 3.81679 68.2848 3.6039C68.0269 3.40622 67.86 3.16292 67.8145 2.82838C67.7538 2.50905 67.8145 2.22013 68.0117 1.94642C68.1938 1.68791 68.4517 1.52064 68.7703 1.47502L68.7854 1.49023Z" fill="#BBAB8B"/>
<path d="M72.6388 4.37943C73.0636 4.34901 73.4884 4.24257 73.9132 4.04489C74.3379 3.8472 74.7324 3.61911 75.0813 3.3454C75.0965 3.64952 75.1117 3.98406 75.142 4.34901C75.142 4.65314 75.1724 5.0333 75.1875 5.45907C75.2179 5.88485 75.233 6.34104 75.2634 6.84285C75.3696 6.44748 75.5213 6.03691 75.7033 5.61114C75.8854 5.18536 76.113 4.79 76.3557 4.44025C76.6136 4.09051 76.9019 3.78638 77.2204 3.55828C77.539 3.31498 77.9031 3.19333 78.2824 3.16292C78.6465 3.14771 78.9651 3.25416 79.223 3.49746C79.4809 3.74076 79.6933 4.04489 79.8754 4.42504C80.0574 4.8052 80.2243 5.21577 80.3608 5.65675C80.4974 6.09774 80.6339 6.52351 80.7705 6.90367C80.9677 7.46631 81.1649 8.05935 81.3621 8.69802C81.5594 9.33668 81.7717 9.91452 82.0145 10.4467C82.242 10.979 82.5 11.4199 82.7882 11.7545C83.0765 12.1042 83.395 12.2563 83.7591 12.2411V12.3627L82.0903 12.454C81.8324 12.454 81.62 12.3931 81.438 12.2411C81.2559 12.089 81.1042 11.8609 80.9677 11.572C80.8311 11.2831 80.6946 10.9485 80.5732 10.5532C80.4519 10.1578 80.3153 9.74725 80.194 9.29106C80.0726 8.9109 79.9512 8.48513 79.8147 8.02894C79.6781 7.57275 79.5568 7.14697 79.4354 6.76681C79.314 6.37145 79.1927 6.0065 79.0713 5.67196C78.9499 5.33742 78.8134 5.06371 78.6769 4.82041C78.5403 4.59231 78.3886 4.40984 78.2369 4.27298C78.0852 4.15133 77.9031 4.09051 77.7211 4.09051C77.4025 4.10571 77.0839 4.27298 76.7957 4.5619C76.5074 4.85082 76.2495 5.21577 76.0371 5.64155C75.8247 6.06733 75.6578 6.52351 75.5365 6.99491C75.4151 7.46631 75.3696 7.89208 75.3847 8.27224V8.50033C75.4303 9.18462 75.4758 9.79287 75.5061 10.3099C75.5365 10.8269 75.5971 11.2679 75.673 11.6024C75.764 11.9522 75.8854 12.1955 76.0523 12.3627C76.2192 12.53 76.4771 12.606 76.8108 12.5908V12.7125L73.1546 12.9102V12.7885C73.4884 12.7733 73.7311 12.6669 73.8828 12.4844C74.0345 12.3019 74.1407 12.0282 74.1862 11.6785C74.2318 11.3287 74.2317 10.8877 74.2014 10.3707C74.1711 9.8537 74.1256 9.24544 74.0952 8.56116C74.0497 7.87688 74.0194 7.26862 74.0042 6.75161C73.9738 6.23459 73.9283 5.79361 73.8373 5.45907C73.7614 5.10933 73.6249 4.86603 73.4429 4.69876C73.2608 4.53149 73.0029 4.45546 72.6691 4.47066V4.34901L72.6388 4.37943Z" fill="#BBAB8B"/>
<path d="M93.9542 0.425777V0.547427C93.6052 0.501808 93.3473 0.562633 93.1653 0.729903C92.9832 0.881966 92.8315 1.14047 92.7253 1.47501C92.6191 1.80955 92.5433 2.23533 92.4826 2.75234C92.4219 3.26936 92.346 3.87761 92.2702 4.56189L91.7695 8.85007C91.6937 9.53435 91.6178 10.1426 91.5571 10.6596C91.4965 11.1766 91.4813 11.6176 91.4965 11.9674C91.5116 12.3171 91.6027 12.5908 91.7392 12.7885C91.8757 12.9862 92.1185 13.1078 92.4522 13.1382V13.2599L88.796 12.8341V12.7125C89.145 12.7581 89.4029 12.6973 89.5849 12.5452C89.767 12.3931 89.9187 12.1346 90.0249 11.8001C90.1311 11.4656 90.2069 11.0398 90.2676 10.5076C90.3283 9.99054 90.389 9.38229 90.48 8.69801L90.9807 4.40983C91.0565 3.72554 91.1324 3.11729 91.193 2.60028C91.2537 2.08326 91.2841 1.64228 91.2537 1.29254C91.2234 0.942791 91.1475 0.669077 90.9958 0.471395C90.8441 0.273713 90.6165 0.152063 90.2828 0.12165V0L93.939 0.425777H93.9542Z" fill="#BBAB8B"/>
<path d="M94.6368 4.8356C95.0464 4.92684 95.4864 4.92684 95.9567 4.8356C96.427 4.74436 96.8517 4.62271 97.2614 4.45544C97.1855 4.78998 97.1097 5.17014 97.0338 5.5655C96.9579 5.91525 96.8669 6.31061 96.7759 6.7668C96.6849 7.22299 96.5787 7.7248 96.4725 8.27223C96.5787 7.83124 96.7759 7.40547 97.0641 6.9949C97.3524 6.58433 97.7013 6.23458 98.1109 5.93046C98.5206 5.62633 98.9605 5.41344 99.4308 5.26138C99.9011 5.10932 100.387 5.09411 100.872 5.20055C101.024 5.23097 101.191 5.27658 101.388 5.33741C101.585 5.39824 101.737 5.48947 101.843 5.59592C101.904 6.00649 101.813 6.29541 101.57 6.47788C101.327 6.66036 101.024 6.70598 100.66 6.62995C100.538 6.59953 100.417 6.56912 100.326 6.5235C100.235 6.47788 100.129 6.43226 100.038 6.37144C99.9466 6.31061 99.8404 6.26499 99.7191 6.21938C99.5977 6.17376 99.446 6.12814 99.2639 6.08252C98.8998 6.00649 98.5509 6.06731 98.2323 6.24979C97.8985 6.43226 97.6103 6.72118 97.3372 7.08613C97.0641 7.45109 96.8214 7.89207 96.6242 8.37867C96.4118 8.88048 96.2601 9.39749 96.1387 9.94492C96.0173 10.5228 95.9111 11.0398 95.8201 11.496C95.7291 11.9522 95.6836 12.3475 95.6836 12.6668C95.6836 12.9862 95.7443 13.2599 95.8656 13.4576C95.987 13.6553 96.2146 13.7921 96.5483 13.8681L96.518 13.9898L92.9376 13.2447L92.968 13.123C93.3017 13.1839 93.5596 13.1535 93.7569 13.0166C93.9541 12.8797 94.121 12.6364 94.2575 12.3171C94.394 11.9826 94.5154 11.572 94.6064 11.055C94.7126 10.538 94.8188 9.94492 94.9705 9.27584C95.1071 8.60677 95.2284 8.01372 95.3346 7.4967C95.4408 6.97969 95.5015 6.55391 95.5015 6.20417C95.5015 5.85442 95.4408 5.5655 95.3195 5.36782C95.1981 5.17014 94.9554 5.01808 94.6368 4.95725L94.6671 4.8356H94.6368Z" fill="#BBAB8B"/>
<path d="M101.297 10.2034C101.509 9.56478 101.828 9.00215 102.253 8.53075C102.677 8.05936 103.178 7.6792 103.724 7.39028C104.27 7.10136 104.877 6.94929 105.514 6.88847C106.152 6.82764 106.789 6.90368 107.411 7.11656C108.048 7.32945 108.549 7.58796 108.943 7.9377C109.322 8.27224 109.626 8.62199 109.823 9.00215C110.02 9.3671 110.126 9.73205 110.157 10.097C110.187 10.462 110.157 10.7661 110.081 11.0398C109.99 11.2983 109.884 11.496 109.717 11.6328C109.565 11.7697 109.398 11.8457 109.216 11.8913C109.034 11.937 108.837 11.937 108.64 11.9065C108.442 11.8761 108.245 11.8305 108.048 11.7697L102.541 9.96014C102.344 10.5532 102.283 11.1462 102.344 11.7241C102.404 12.3171 102.571 12.8493 102.829 13.3664C103.087 13.8682 103.451 14.3091 103.876 14.6893C104.316 15.0695 104.817 15.3432 105.378 15.5409C105.788 15.6777 106.197 15.7537 106.607 15.7537C107.016 15.7537 107.396 15.7081 107.76 15.6017C108.124 15.4952 108.458 15.3432 108.761 15.1455C109.064 14.9478 109.338 14.7045 109.55 14.446L109.656 14.5372C109.383 14.963 109.049 15.328 108.655 15.6321C108.26 15.9362 107.836 16.1643 107.365 16.3316C106.895 16.4989 106.41 16.5901 105.909 16.5901C105.408 16.5901 104.892 16.5293 104.392 16.362C103.77 16.1491 103.208 15.845 102.723 15.4192C102.238 14.9934 101.858 14.5068 101.57 13.9442C101.282 13.3816 101.115 12.7885 101.054 12.1499C100.993 11.5112 101.054 10.8725 101.267 10.2339L101.297 10.2034ZM105.954 10.7053C106.273 10.8117 106.592 10.9029 106.895 10.9942C107.214 11.0854 107.502 11.1158 107.76 11.131C108.018 11.1462 108.26 11.0854 108.458 10.9942C108.655 10.9029 108.791 10.7205 108.882 10.462C108.989 10.1274 109.019 9.80808 108.973 9.50395C108.928 9.19983 108.807 8.91091 108.624 8.63719C108.442 8.36348 108.185 8.12018 107.866 7.90729C107.547 7.6944 107.183 7.51193 106.758 7.37507C106.303 7.22301 105.863 7.17739 105.454 7.2078C105.044 7.25342 104.65 7.37507 104.301 7.57275C103.952 7.77044 103.618 8.05936 103.345 8.4091C103.057 8.77405 102.829 9.19983 102.632 9.68643C102.935 9.77767 103.224 9.86891 103.482 9.94494C103.739 10.021 103.997 10.097 104.255 10.173C104.513 10.2491 104.771 10.3403 105.044 10.4163C105.317 10.5076 105.621 10.5988 105.954 10.7053Z" fill="#BBAB8B"/>
<path d="M109.14 17.7457C109.444 17.8826 109.717 17.8978 109.929 17.8066C110.157 17.7153 110.369 17.5177 110.566 17.2287C110.764 16.9398 110.976 16.5444 111.188 16.0731C111.401 15.6017 111.644 15.039 111.917 14.4156L113.631 10.5684C113.874 10.0209 114.086 9.54955 114.253 9.13898C114.42 8.72841 114.541 8.37866 114.602 8.07454C114.663 7.77041 114.647 7.51191 114.556 7.31422C114.465 7.11654 114.283 6.94927 113.995 6.81242L114.056 6.69077C114.435 6.85803 114.875 6.96448 115.345 6.97969C115.816 6.99489 116.271 6.97969 116.696 6.88845C116.529 7.26861 116.347 7.67918 116.149 8.12016C115.967 8.50032 115.77 8.9413 115.543 9.44311C115.315 9.94491 115.072 10.4771 114.829 11.055L113.1 14.9326C112.827 15.556 112.569 16.1187 112.357 16.5901C112.144 17.0615 111.993 17.472 111.917 17.8218C111.826 18.1715 111.826 18.4604 111.917 18.6885C111.993 18.9166 112.19 19.0991 112.493 19.236L112.432 19.3576L109.095 17.8674L109.156 17.7457H109.14Z" fill="#BBAB8B"/>
<path d="M114.101 17.8066C114.45 17.2136 114.89 16.8182 115.436 16.6053C115.982 16.3924 116.589 16.286 117.257 16.2556C117.924 16.2251 118.622 16.2556 119.366 16.3012C120.109 16.362 120.837 16.3468 121.55 16.3012C121.641 15.9362 121.717 15.6169 121.793 15.328C121.854 15.039 121.884 14.7957 121.884 14.5829C121.884 14.37 121.838 14.1875 121.763 14.0354C121.687 13.8834 121.565 13.7465 121.383 13.6553C121.125 13.5032 120.837 13.4576 120.503 13.488C120.17 13.5184 119.836 13.5792 119.502 13.6553C119.168 13.7313 118.835 13.7769 118.516 13.8225C118.197 13.8682 117.909 13.8225 117.682 13.6705C117.484 13.564 117.363 13.3968 117.317 13.1991C117.257 13.0014 117.317 12.8189 117.454 12.6517C117.575 12.5756 117.788 12.53 118.076 12.5148C118.364 12.5148 118.698 12.5148 119.077 12.5756C119.457 12.6365 119.851 12.7277 120.276 12.8645C120.701 13.0014 121.095 13.1839 121.459 13.3968C122.005 13.7161 122.369 14.1115 122.551 14.5677C122.734 15.0238 122.794 15.5256 122.749 16.0731C122.703 16.6205 122.597 17.1983 122.43 17.7914C122.263 18.3844 122.112 18.9927 121.975 19.6009C121.778 20.4829 121.626 21.2128 121.49 21.7754C121.368 22.3533 121.307 22.8095 121.292 23.1744C121.292 23.5394 121.338 23.8131 121.459 24.026C121.581 24.2389 121.778 24.4213 122.051 24.5734L121.99 24.6798L120.291 23.6914C120.154 23.6154 120.063 23.5242 119.988 23.4329C119.927 23.3417 119.881 23.2352 119.881 23.0984C119.881 22.9615 119.881 22.7943 119.942 22.5814C119.988 22.3685 120.048 22.11 120.139 21.8059C120.154 21.7146 120.2 21.5473 120.261 21.304C120.321 21.0607 120.397 20.7718 120.488 20.4525C120.579 20.1332 120.655 19.7834 120.761 19.4033C120.867 19.0231 120.943 18.6734 121.034 18.3388C120.594 18.9015 120.109 19.3881 119.608 19.8138C119.108 20.2396 118.592 20.5741 118.061 20.8022C117.53 21.0303 117.014 21.1672 116.483 21.1824C115.952 21.1824 115.451 21.0607 114.966 20.7718C114.647 20.5893 114.405 20.3765 114.223 20.1332C114.041 19.8899 113.919 19.6466 113.843 19.3728C113.783 19.0991 113.767 18.8406 113.813 18.5517C113.858 18.278 113.95 18.0043 114.101 17.761V17.8066ZM115.345 18.2476C115.133 18.6125 115.072 18.9927 115.163 19.3728C115.254 19.753 115.497 20.0419 115.861 20.2548C116.24 20.4829 116.62 20.5893 117.014 20.5741C117.408 20.5741 117.788 20.4981 118.152 20.346C118.516 20.194 118.88 19.9811 119.229 19.7226C119.578 19.4641 119.881 19.1752 120.154 18.8862C120.428 18.5973 120.655 18.3084 120.852 18.0195C121.05 17.7306 121.186 17.5025 121.277 17.3048C121.307 17.1679 121.338 17.0463 121.383 16.9094C121.429 16.7878 121.459 16.6509 121.505 16.5141C120.913 16.5749 120.306 16.6205 119.684 16.6357C119.062 16.6357 118.486 16.6965 117.924 16.7726C117.363 16.8486 116.862 17.0007 116.422 17.1983C115.982 17.396 115.618 17.7458 115.345 18.2172V18.2476Z" fill="#BBAB8B"/>
<path d="M127.907 18.3692C128.225 18.6429 128.62 18.8406 129.06 18.9927C129.515 19.1447 129.955 19.236 130.395 19.2664C130.198 19.4945 129.985 19.753 129.758 20.0419C129.56 20.27 129.318 20.5589 129.045 20.8934C128.772 21.228 128.483 21.5777 128.165 21.9731C128.514 21.7602 128.893 21.5473 129.318 21.3648C129.743 21.1824 130.167 21.0455 130.592 20.9543C131.017 20.863 131.427 20.8478 131.836 20.8934C132.231 20.9391 132.58 21.0759 132.883 21.3344C133.171 21.5625 133.323 21.8667 133.353 22.2164C133.384 22.5661 133.338 22.9463 133.217 23.3417C133.095 23.7522 132.944 24.1628 132.731 24.5734C132.534 24.9992 132.352 25.3945 132.185 25.7747C131.958 26.3221 131.7 26.8847 131.411 27.493C131.123 28.1012 130.896 28.6791 130.698 29.2265C130.501 29.7739 130.41 30.2757 130.38 30.7167C130.349 31.1577 130.486 31.4922 130.759 31.7203L130.683 31.8268L129.394 30.7623C129.196 30.5951 129.075 30.3974 129.06 30.1541C129.029 29.9108 129.06 29.6523 129.166 29.3329C129.272 29.0136 129.394 28.6791 129.56 28.3141C129.743 27.9492 129.925 27.5538 130.122 27.128C130.289 26.7631 130.486 26.3677 130.698 25.9419C130.911 25.501 131.108 25.1056 131.275 24.7559C131.457 24.3757 131.609 24.0259 131.745 23.7066C131.882 23.3873 131.973 23.0832 132.033 22.8246C132.094 22.5661 132.109 22.3228 132.079 22.1252C132.049 21.9275 131.958 21.7602 131.821 21.6386C131.563 21.4257 131.229 21.3344 130.82 21.3648C130.41 21.3801 129.97 21.4865 129.53 21.6538C129.075 21.821 128.65 22.0339 128.241 22.3076C127.831 22.5813 127.497 22.8551 127.27 23.144L127.118 23.3265C126.678 23.8587 126.299 24.3301 125.965 24.7254C125.631 25.1208 125.388 25.4858 125.206 25.7899C125.04 26.094 124.948 26.3829 124.964 26.611C124.964 26.8543 125.115 27.0824 125.373 27.2953L125.297 27.4017L122.46 25.0752L122.536 24.9687C122.794 25.1816 123.037 25.2729 123.28 25.2425C123.522 25.212 123.78 25.0904 124.053 24.8623C124.326 24.6342 124.63 24.3149 124.948 23.9043C125.282 23.4937 125.662 23.0223 126.086 22.5053C126.526 21.9731 126.906 21.5017 127.239 21.1063C127.573 20.711 127.831 20.346 127.998 20.0419C128.165 19.7226 128.241 19.4488 128.225 19.2055C128.21 18.9622 128.074 18.7342 127.816 18.5213L127.892 18.4148L127.907 18.3692Z" fill="#BBAB8B"/>
<path d="M133.596 28.9072C134.188 28.3598 134.825 27.9796 135.492 27.7667C136.16 27.5538 136.812 27.4626 137.465 27.5082C138.117 27.5538 138.739 27.7059 139.331 27.9796C139.922 28.2533 140.453 28.6031 140.908 29.044C140.969 28.9528 141.015 28.8768 141.06 28.8159C141.106 28.7551 141.136 28.6943 141.182 28.6335C141.227 28.5726 141.257 28.527 141.273 28.4662C141.455 28.1469 141.622 27.8732 141.773 27.6299C141.925 27.3866 142.031 27.1889 142.107 26.9912C142.183 26.7935 142.213 26.6414 142.198 26.4894C142.198 26.3373 142.107 26.1853 141.97 26.0332C141.864 25.9115 141.758 25.8203 141.652 25.7443C141.546 25.6682 141.409 25.577 141.257 25.4858L141.348 25.3945C141.561 25.501 141.773 25.6074 142.001 25.7139C142.228 25.8203 142.441 25.9115 142.638 26.0028C142.835 26.094 143.017 26.1853 143.184 26.2765C143.351 26.3677 143.457 26.4438 143.518 26.5198C143.609 26.6262 143.654 26.7327 143.67 26.8391C143.67 26.9456 143.67 27.052 143.609 27.1737C143.563 27.2953 143.488 27.417 143.412 27.569C143.321 27.7059 143.23 27.858 143.139 28.01C142.714 28.6487 142.289 29.3026 141.879 29.9564C141.53 30.5038 141.151 31.0817 140.757 31.7051C140.362 32.3286 139.998 32.8912 139.68 33.4083C139.376 33.9101 139.027 34.4423 138.663 35.0049C138.299 35.5675 137.98 36.0998 137.723 36.6168C137.465 37.1338 137.283 37.6052 137.192 38.0462C137.101 38.4872 137.192 38.8369 137.434 39.0954L137.343 39.1866L136.205 37.9397C135.978 37.6812 135.902 37.3771 135.993 37.0274C136.084 36.6776 136.266 36.2822 136.524 35.8413C135.917 35.9477 135.295 35.9173 134.673 35.75C134.051 35.5828 133.49 35.2482 133.004 34.716C132.534 34.199 132.215 33.682 132.064 33.165C131.912 32.6479 131.867 32.1461 131.958 31.6443C132.049 31.1425 132.231 30.6711 132.519 30.1997C132.807 29.7435 133.171 29.3178 133.611 28.9224L133.596 28.9072ZM134.688 29.5306C134.309 29.8804 133.975 30.2758 133.672 30.7015C133.368 31.1425 133.156 31.5835 133.035 32.0549C132.898 32.5263 132.883 32.9825 132.944 33.4387C133.02 33.8949 133.232 34.3206 133.596 34.716C133.808 34.9441 134.036 35.1266 134.279 35.2634C134.521 35.4003 134.779 35.4915 135.052 35.5523C135.326 35.6132 135.599 35.6436 135.872 35.6284C136.145 35.6132 136.418 35.598 136.691 35.5523C136.797 35.3851 136.919 35.2026 137.04 35.0201C137.161 34.8376 137.298 34.64 137.434 34.4575C138.026 33.6059 138.602 32.7544 139.149 31.9028C139.695 31.0361 140.241 30.1693 140.787 29.3026C140.347 28.8616 139.862 28.5726 139.331 28.3902C138.8 28.2229 138.254 28.1469 137.707 28.1925C137.161 28.2381 136.63 28.375 136.099 28.6031C135.568 28.8312 135.113 29.1505 134.688 29.5306Z" fill="#BBAB8B"/>
<path d="M147.159 55.6703L147.28 55.6399C147.371 55.944 147.568 56.1417 147.872 56.2481C148.175 56.3546 148.555 56.385 149.01 56.3698C149.465 56.3546 149.981 56.2938 150.572 56.1873C151.164 56.0809 151.771 55.9744 152.423 55.8832C152.924 55.8072 153.516 55.7159 154.168 55.6095C154.82 55.503 155.488 55.3966 156.14 55.2749C156.808 55.1685 157.43 55.0468 158.036 54.9556C158.643 54.8492 159.129 54.7731 159.508 54.6971C159.66 54.5298 159.751 54.3626 159.781 54.1953C159.811 54.028 159.827 53.876 159.827 53.7543C159.827 53.6022 159.781 53.4502 159.72 53.3133L159.872 53.2677L160.555 55.6095C159.629 56.2633 158.765 56.8868 157.945 57.4798C157.126 58.0729 156.337 58.6507 155.579 59.2286C154.82 59.8064 154.062 60.369 153.318 60.9165C152.575 61.4791 151.816 62.0417 151.043 62.6348L162.557 62.4827L163.164 64.5812L163.013 64.6268C163.013 64.6268 162.982 64.5052 162.952 64.4443C162.937 64.3987 162.906 64.3531 162.861 64.2923C162.831 64.2467 162.785 64.201 162.724 64.1706C162.648 64.125 162.557 64.0946 162.466 64.0794C162.36 64.049 162.239 64.049 162.087 64.0642C161.935 64.0642 161.753 64.1098 161.526 64.1706C161.298 64.2315 161.025 64.3227 160.707 64.4595C160.267 64.642 159.796 64.8397 159.281 65.0678C158.765 65.2959 158.264 65.5088 157.733 65.7521C157.217 65.9802 156.701 66.2083 156.201 66.4516C155.7 66.6797 155.23 66.8926 154.79 67.075C154.198 67.3335 153.667 67.5464 153.212 67.7441C152.742 67.9418 152.363 68.1395 152.059 68.3371C151.756 68.5348 151.543 68.7477 151.407 68.9758C151.27 69.2039 151.27 69.4776 151.361 69.797L151.24 69.8274L150.117 66.0106L150.239 65.9802C150.33 66.2691 150.451 66.482 150.618 66.6036C150.785 66.7253 150.997 66.7861 151.255 66.7861C151.513 66.7861 151.801 66.7253 152.135 66.634C152.469 66.5276 152.833 66.406 153.227 66.2387C153.531 66.117 153.895 65.965 154.304 65.7977C154.714 65.6304 155.154 65.4327 155.624 65.2351C156.095 65.0374 156.595 64.8245 157.096 64.5964C157.612 64.3683 158.097 64.1554 158.598 63.9425C159.083 63.7296 159.554 63.5168 159.994 63.3343C160.434 63.1366 160.828 62.9693 161.162 62.8173L150.603 62.9693C150.405 63.1214 150.223 63.2582 150.026 63.3951C149.829 63.532 149.647 63.684 149.45 63.8209L149.055 62.4979C149.677 62.0265 150.254 61.5856 150.8 61.175C151.331 60.7644 151.862 60.369 152.363 59.9889C152.863 59.6087 153.349 59.2286 153.849 58.8636C154.335 58.4987 154.851 58.1185 155.382 57.7231C155.913 57.3278 156.474 56.9172 157.066 56.4914C157.657 56.0657 158.31 55.5943 159.007 55.0925C158.598 55.1685 158.097 55.2597 157.551 55.3662C156.99 55.4726 156.413 55.5943 155.806 55.7159C155.2 55.8376 154.608 55.9592 154.016 56.0809C153.424 56.2025 152.878 56.309 152.378 56.4154C151.877 56.5218 151.467 56.5979 151.119 56.6891C150.77 56.7652 150.542 56.826 150.436 56.8716C150.345 56.902 150.223 56.9324 150.057 56.978C149.89 57.0237 149.708 57.0845 149.51 57.1605C149.313 57.2365 149.131 57.3278 148.934 57.4342C148.752 57.5407 148.585 57.6927 148.464 57.86C148.327 58.0273 148.251 58.225 148.19 58.4683C148.145 58.6964 148.16 58.9701 148.251 59.2894L148.13 59.3198L147.083 55.7159L147.159 55.6703Z" fill="#BBAB8B"/>
<path d="M153.197 70.5573C153.88 70.4965 154.456 70.6181 154.942 70.9526C155.427 71.272 155.882 71.713 156.292 72.23C156.701 72.7622 157.111 73.34 157.49 73.9787C157.885 74.6174 158.31 75.1952 158.765 75.7426C159.114 75.6058 159.417 75.4841 159.69 75.3777C159.948 75.2712 160.176 75.1496 160.342 75.0127C160.509 74.8911 160.631 74.739 160.722 74.6022C160.798 74.4501 160.828 74.2676 160.813 74.0699C160.782 73.781 160.661 73.5073 160.433 73.264C160.206 73.0207 159.978 72.7774 159.72 72.5493C159.463 72.3212 159.235 72.0779 159.007 71.8498C158.78 71.6065 158.658 71.348 158.643 71.0743C158.628 70.8462 158.674 70.6637 158.81 70.4964C158.932 70.3292 159.114 70.2684 159.341 70.2836C159.478 70.3444 159.629 70.4812 159.811 70.7093C159.994 70.9374 160.176 71.2264 160.342 71.5761C160.509 71.9106 160.676 72.306 160.798 72.7166C160.919 73.1271 161.025 73.5681 161.055 73.9939C161.116 74.6326 161.01 75.1496 160.737 75.5601C160.464 75.9707 160.1 76.3205 159.629 76.6094C159.159 76.8983 158.643 77.1416 158.052 77.3545C157.46 77.5674 156.883 77.7955 156.322 78.0388C155.488 78.3885 154.805 78.6926 154.274 78.9207C153.743 79.1488 153.318 79.3617 153.03 79.5746C152.727 79.7723 152.529 79.9852 152.438 80.1981C152.332 80.411 152.302 80.6847 152.332 81.004H152.211L152.029 79.0576C152.029 78.9055 152.029 78.7687 152.059 78.6622C152.089 78.5558 152.165 78.4646 152.271 78.3733C152.378 78.2821 152.529 78.206 152.727 78.1148C152.924 78.0388 153.167 77.9323 153.47 77.8107C153.546 77.7803 153.713 77.7194 153.94 77.6282C154.168 77.537 154.441 77.4305 154.76 77.3089C155.078 77.1872 155.412 77.0504 155.761 76.9135C156.125 76.7767 156.459 76.6398 156.777 76.5181C156.064 76.4877 155.397 76.3813 154.744 76.214C154.092 76.0467 153.531 75.8187 153.03 75.5297C152.529 75.2408 152.12 74.8759 151.816 74.4653C151.513 74.0547 151.316 73.5529 151.27 73.0055C151.24 72.6405 151.27 72.3212 151.346 72.0323C151.422 71.7434 151.558 71.5001 151.74 71.2872C151.923 71.0743 152.135 70.907 152.393 70.7854C152.651 70.6637 152.909 70.5877 153.212 70.5573H153.197ZM153.561 71.8194C153.136 71.865 152.787 72.0323 152.545 72.3212C152.302 72.6101 152.196 72.9751 152.226 73.4009C152.271 73.8418 152.408 74.222 152.636 74.5261C152.863 74.8454 153.151 75.104 153.5 75.3168C153.834 75.5297 154.213 75.697 154.623 75.8339C155.033 75.9555 155.442 76.0467 155.837 76.1076C156.231 76.1684 156.595 76.1836 156.944 76.1836C157.293 76.1836 157.566 76.1532 157.763 76.1228C157.885 76.062 158.006 76.0163 158.143 75.9707C158.264 75.9251 158.401 75.8795 158.537 75.8339C158.127 75.3929 157.748 74.9215 157.369 74.4197C156.99 73.9179 156.626 73.4769 156.231 73.0663C155.852 72.6557 155.442 72.3364 155.002 72.0931C154.577 71.8498 154.092 71.7434 153.546 71.8042L153.561 71.8194Z" fill="#BBAB8B"/>
<path d="M156.322 81.0952C157.126 81.1408 157.839 81.3081 158.461 81.6426C159.083 81.962 159.599 82.3726 160.039 82.8744C160.464 83.3762 160.798 83.9236 161.025 84.5318C161.253 85.1401 161.374 85.7636 161.389 86.4022C161.495 86.387 161.586 86.3566 161.662 86.3414C161.738 86.3262 161.814 86.311 161.875 86.2958C161.951 86.2958 162.011 86.2654 162.057 86.2502C162.421 86.1589 162.724 86.0677 162.997 86.0069C163.27 85.946 163.498 85.87 163.68 85.794C163.862 85.7179 163.999 85.6267 164.105 85.5051C164.196 85.3834 164.257 85.2313 164.257 85.0184C164.257 84.8664 164.257 84.7143 164.226 84.5775C164.196 84.4406 164.181 84.2885 164.135 84.1213H164.257C164.317 84.3494 164.393 84.5775 164.484 84.8056C164.575 85.0337 164.651 85.2465 164.727 85.4594C164.803 85.6723 164.863 85.8548 164.924 86.0373C164.985 86.2198 165 86.3414 165 86.4478C165 86.5847 164.954 86.6911 164.894 86.7824C164.818 86.8584 164.727 86.9344 164.606 86.9801C164.484 87.0257 164.348 87.0713 164.181 87.1017C164.014 87.1321 163.847 87.1777 163.665 87.2234C162.906 87.3754 162.148 87.5275 161.389 87.6948C160.752 87.8316 160.069 87.9685 159.356 88.1205C158.643 88.2726 157.976 88.4247 157.399 88.5615C156.823 88.6984 156.216 88.8352 155.564 88.9721C154.911 89.1089 154.304 89.261 153.758 89.4283C153.212 89.6108 152.742 89.8084 152.378 90.0669C152.014 90.3102 151.816 90.6144 151.801 90.9793H151.68L151.756 89.2914C151.771 88.9417 151.938 88.6832 152.241 88.5007C152.56 88.3182 152.954 88.1662 153.47 88.0445C152.969 87.6796 152.56 87.2234 152.226 86.6607C151.892 86.0981 151.756 85.4594 151.786 84.7447C151.816 84.0452 151.968 83.4674 152.226 82.9808C152.484 82.5094 152.818 82.1293 153.227 81.8251C153.637 81.5362 154.107 81.3385 154.638 81.2169C155.169 81.0952 155.73 81.0496 156.307 81.08L156.322 81.0952ZM156.656 82.2965C156.14 82.2661 155.624 82.2965 155.108 82.403C154.593 82.4942 154.122 82.6615 153.698 82.9048C153.273 83.1329 152.939 83.437 152.666 83.8172C152.393 84.1973 152.241 84.6535 152.226 85.1857C152.226 85.4898 152.241 85.7788 152.332 86.0525C152.423 86.3262 152.529 86.5695 152.681 86.8128C152.833 87.0561 153 87.2538 153.197 87.4515C153.394 87.6491 153.607 87.8164 153.834 87.9837C154.031 87.9381 154.244 87.9076 154.456 87.862C154.668 87.8164 154.896 87.786 155.139 87.7404C156.155 87.5579 157.157 87.3754 158.158 87.1473C159.159 86.9192 160.145 86.7063 161.147 86.4783C161.147 85.8548 161.01 85.2922 160.752 84.7904C160.494 84.2885 160.16 83.8628 159.736 83.4978C159.311 83.1329 158.841 82.8592 158.31 82.6463C157.779 82.4486 157.232 82.3269 156.656 82.2965Z" fill="#BBAB8B"/>
<path d="M156.246 91.4355C156.914 91.5572 157.506 91.8005 158.021 92.1502C158.552 92.5152 158.992 92.9562 159.341 93.458C159.69 93.9598 159.933 94.5376 160.085 95.1763C160.221 95.7997 160.236 96.4384 160.115 97.0923C159.994 97.7461 159.796 98.2936 159.508 98.7193C159.235 99.1451 158.916 99.4797 158.583 99.7382C158.249 99.9815 157.9 100.149 157.551 100.225C157.202 100.301 156.884 100.316 156.61 100.27C156.337 100.225 156.125 100.134 155.973 99.9967C155.822 99.8598 155.715 99.7078 155.639 99.5253C155.579 99.3428 155.533 99.1603 155.548 98.9474C155.548 98.7346 155.564 98.5369 155.609 98.3392L156.656 92.6216C156.049 92.5152 155.457 92.5304 154.881 92.6672C154.304 92.8041 153.789 93.0474 153.334 93.3667C152.878 93.7013 152.484 94.1118 152.165 94.5984C151.847 95.085 151.634 95.6173 151.528 96.1951C151.452 96.6209 151.437 97.0467 151.483 97.4572C151.528 97.8678 151.634 98.2328 151.786 98.5825C151.938 98.9322 152.135 99.2364 152.378 99.5253C152.62 99.799 152.878 100.027 153.182 100.225L153.106 100.346C152.651 100.134 152.241 99.8446 151.892 99.4949C151.543 99.1451 151.255 98.7498 151.028 98.3088C150.8 97.8678 150.648 97.3964 150.572 96.8946C150.497 96.3928 150.497 95.8758 150.603 95.3588C150.724 94.7049 150.967 94.1118 151.316 93.5796C151.665 93.0474 152.105 92.6064 152.62 92.2415C153.136 91.8917 153.698 91.6332 154.32 91.4811C154.942 91.3291 155.579 91.3139 156.246 91.4355ZM156.368 96.1191C156.307 96.4536 156.262 96.7729 156.216 97.0923C156.17 97.4116 156.17 97.7005 156.201 97.9742C156.231 98.2327 156.307 98.4608 156.428 98.6433C156.55 98.8258 156.747 98.9474 157.02 98.9931C157.369 99.0539 157.688 99.0387 157.991 98.9474C158.294 98.8562 158.552 98.7041 158.795 98.4761C159.038 98.248 159.235 97.9742 159.402 97.6245C159.569 97.2747 159.69 96.8946 159.781 96.4536C159.872 95.9822 159.857 95.5412 159.781 95.1307C159.69 94.7201 159.508 94.3551 159.265 94.0358C159.023 93.7165 158.704 93.4276 158.31 93.1995C157.915 92.9714 157.46 92.7889 156.944 92.6672C156.899 92.9866 156.853 93.2755 156.808 93.5492C156.762 93.8229 156.732 94.0814 156.686 94.3551C156.641 94.6136 156.595 94.8874 156.55 95.1763C156.504 95.4652 156.444 95.7693 156.383 96.1191H156.368Z" fill="#BBAB8B"/>
<path d="M148.418 104.635L148.539 104.68C148.418 105 148.418 105.258 148.539 105.486C148.661 105.714 148.858 105.897 149.161 106.079C149.465 106.262 149.859 106.444 150.36 106.611C150.845 106.779 151.422 106.992 152.059 107.235C152.696 107.478 153.273 107.676 153.758 107.874C154.244 108.056 154.669 108.178 155.017 108.238C155.366 108.299 155.655 108.284 155.882 108.178C156.11 108.086 156.277 107.874 156.383 107.554L156.504 107.6C156.368 107.995 156.292 108.436 156.307 108.908C156.307 109.379 156.383 109.835 156.489 110.261C156.034 110.094 155.548 109.911 155.017 109.729C154.562 109.561 154.047 109.364 153.47 109.151C152.894 108.938 152.272 108.71 151.619 108.467C150.967 108.223 150.405 108.026 149.92 107.843C149.435 107.661 149.01 107.539 148.661 107.478C148.312 107.417 148.024 107.433 147.811 107.524C147.584 107.615 147.417 107.828 147.311 108.132L147.189 108.086L148.448 104.635H148.418ZM159.265 110.474C159.159 110.778 158.947 111.006 158.659 111.143C158.37 111.28 158.067 111.295 157.763 111.189C157.46 111.082 157.232 110.869 157.096 110.565C156.959 110.261 156.944 109.957 157.05 109.653C157.157 109.349 157.369 109.12 157.657 108.984C157.961 108.847 158.249 108.832 158.567 108.953C158.886 109.075 159.098 109.273 159.235 109.561C159.372 109.85 159.387 110.154 159.265 110.459V110.474Z" fill="#BBAB8B"/>
<path d="M154.866 112.375C154.684 112.755 154.562 113.181 154.517 113.652C154.471 114.123 154.486 114.58 154.547 115.005C154.274 114.868 153.971 114.716 153.652 114.564C153.379 114.412 153.045 114.245 152.666 114.062C152.287 113.88 151.877 113.667 151.422 113.439C151.71 113.728 151.998 114.062 152.271 114.427C152.545 114.792 152.772 115.173 152.969 115.583C153.151 115.978 153.273 116.374 153.318 116.784C153.364 117.18 153.318 117.56 153.136 117.91C152.969 118.244 152.727 118.457 152.393 118.564C152.059 118.67 151.68 118.7 151.255 118.685C150.83 118.67 150.405 118.594 149.95 118.503C149.495 118.396 149.07 118.32 148.661 118.244C148.084 118.138 147.462 118.016 146.81 117.879C146.158 117.742 145.551 117.636 144.974 117.575C144.398 117.514 143.897 117.53 143.457 117.606C143.017 117.682 142.729 117.879 142.562 118.214L142.441 118.153L143.184 116.648C143.305 116.419 143.472 116.267 143.685 116.191C143.897 116.115 144.185 116.085 144.504 116.115C144.823 116.131 145.187 116.191 145.581 116.283C145.976 116.374 146.4 116.465 146.871 116.572C147.265 116.663 147.69 116.754 148.16 116.86C148.63 116.967 149.055 117.073 149.45 117.149C149.859 117.241 150.239 117.317 150.588 117.362C150.936 117.423 151.24 117.438 151.513 117.438C151.786 117.438 152.014 117.393 152.211 117.317C152.408 117.241 152.545 117.119 152.62 116.952C152.772 116.663 152.787 116.313 152.666 115.918C152.545 115.522 152.363 115.127 152.105 114.716C151.847 114.321 151.528 113.941 151.179 113.606C150.83 113.272 150.481 113.013 150.132 112.846L149.92 112.74C149.298 112.435 148.767 112.162 148.297 111.934C147.826 111.706 147.432 111.538 147.083 111.447C146.749 111.356 146.461 111.341 146.233 111.401C146.006 111.462 145.809 111.66 145.657 111.949L145.536 111.888L147.159 108.603L147.28 108.664C147.129 108.968 147.098 109.227 147.174 109.455C147.25 109.683 147.447 109.911 147.72 110.124C148.008 110.337 148.373 110.565 148.843 110.778C149.313 110.991 149.859 111.28 150.466 111.584C151.088 111.888 151.619 112.162 152.089 112.405C152.56 112.633 152.954 112.8 153.303 112.907C153.637 112.998 153.925 113.013 154.168 112.937C154.395 112.861 154.593 112.679 154.744 112.375L154.866 112.435V112.375Z" fill="#BBAB8B"/>
<path d="M147.72 132.934L147.614 132.857C147.811 132.584 147.887 132.34 147.842 132.097C147.796 131.854 147.66 131.611 147.417 131.352C147.174 131.094 146.84 130.805 146.431 130.501C146.006 130.196 145.52 129.831 144.974 129.421L141.515 126.851C140.954 126.44 140.468 126.091 140.059 125.771C139.649 125.452 139.27 125.224 138.951 125.072C138.633 124.92 138.36 124.859 138.117 124.874C137.874 124.889 137.662 125.057 137.465 125.315L137.358 125.239L139.528 122.289L139.634 122.365C139.437 122.639 139.361 122.897 139.391 123.125C139.437 123.369 139.573 123.612 139.816 123.871C140.059 124.129 140.393 124.418 140.817 124.722C141.242 125.026 141.728 125.391 142.274 125.802L145.733 128.372C146.294 128.782 146.764 129.147 147.189 129.451C147.599 129.771 147.978 129.999 148.297 130.151C148.615 130.303 148.888 130.364 149.131 130.333C149.374 130.303 149.586 130.151 149.799 129.877L149.905 129.953L147.735 132.903L147.72 132.934Z" fill="#BBAB8B"/>
<path d="M143.579 131.322C143.305 131.641 143.078 132.021 142.926 132.462C142.774 132.903 142.668 133.344 142.608 133.785C142.35 133.557 142.061 133.314 141.758 133.04C141.5 132.797 141.197 132.523 140.848 132.219C140.499 131.915 140.12 131.565 139.695 131.2C140.029 131.519 140.302 131.899 140.514 132.356C140.726 132.812 140.863 133.298 140.924 133.785C140.984 134.287 140.954 134.773 140.848 135.26C140.742 135.747 140.514 136.172 140.195 136.537C140.089 136.659 139.968 136.781 139.816 136.918C139.664 137.054 139.513 137.146 139.361 137.176C138.982 137.024 138.769 136.796 138.739 136.492C138.709 136.188 138.815 135.899 139.058 135.625C139.149 135.534 139.224 135.443 139.315 135.382C139.407 135.321 139.498 135.26 139.589 135.214C139.68 135.154 139.786 135.093 139.877 135.017C139.983 134.941 140.089 134.834 140.211 134.682C140.453 134.409 140.575 134.074 140.575 133.694C140.575 133.314 140.484 132.918 140.302 132.493C140.12 132.082 139.862 131.656 139.528 131.23C139.194 130.805 138.83 130.409 138.405 130.029C137.965 129.649 137.571 129.299 137.222 128.995C136.873 128.691 136.554 128.448 136.266 128.296C135.978 128.128 135.72 128.052 135.477 128.068C135.234 128.083 135.007 128.204 134.795 128.463L134.703 128.372L137.116 125.619L137.207 125.711C136.979 125.969 136.888 126.212 136.903 126.456C136.918 126.699 137.04 126.957 137.267 127.231C137.48 127.505 137.798 127.824 138.193 128.159C138.587 128.493 139.042 128.904 139.558 129.36C140.074 129.816 140.529 130.212 140.908 130.561C141.288 130.911 141.637 131.17 141.94 131.352C142.243 131.535 142.517 131.626 142.759 131.611C143.002 131.611 143.23 131.474 143.457 131.215L143.548 131.306L143.579 131.322Z" fill="#BBAB8B"/>
<path d="M135.614 134.469C136.069 134.971 136.387 135.519 136.6 136.127C136.812 136.735 136.888 137.343 136.858 137.967C136.827 138.59 136.676 139.199 136.403 139.776C136.145 140.354 135.765 140.871 135.265 141.327C134.764 141.784 134.294 142.088 133.808 142.255C133.323 142.422 132.883 142.514 132.458 142.498C132.049 142.498 131.669 142.407 131.336 142.255C131.002 142.103 130.744 141.92 130.562 141.723C130.38 141.525 130.258 141.312 130.228 141.115C130.183 140.917 130.198 140.734 130.258 140.537C130.319 140.354 130.41 140.187 130.531 140.02C130.653 139.852 130.789 139.716 130.941 139.579L135.234 135.671C134.825 135.214 134.339 134.865 133.808 134.621C133.262 134.378 132.716 134.256 132.14 134.241C131.578 134.226 131.017 134.302 130.471 134.5C129.925 134.697 129.439 134.986 128.999 135.382C128.681 135.671 128.408 136.005 128.21 136.355C128.013 136.705 127.861 137.07 127.77 137.435C127.679 137.8 127.649 138.165 127.664 138.529C127.694 138.894 127.755 139.244 127.877 139.563L127.74 139.609C127.512 139.153 127.361 138.682 127.285 138.195C127.224 137.708 127.224 137.222 127.315 136.735C127.406 136.249 127.573 135.777 127.801 135.336C128.043 134.895 128.362 134.485 128.756 134.135C129.242 133.694 129.788 133.359 130.395 133.146C131.002 132.934 131.609 132.842 132.231 132.873C132.853 132.903 133.459 133.04 134.036 133.298C134.612 133.557 135.143 133.937 135.583 134.439L135.614 134.469ZM132.868 138.271C132.625 138.499 132.382 138.727 132.155 138.955C131.927 139.183 131.745 139.411 131.609 139.64C131.472 139.868 131.396 140.096 131.381 140.309C131.381 140.537 131.457 140.75 131.639 140.947C131.882 141.206 132.14 141.388 132.428 141.51C132.716 141.632 133.019 141.662 133.353 141.632C133.672 141.601 134.021 141.495 134.355 141.327C134.688 141.16 135.037 140.917 135.356 140.628C135.72 140.309 135.978 139.944 136.145 139.563C136.312 139.183 136.403 138.788 136.403 138.377C136.403 137.967 136.327 137.556 136.145 137.13C135.978 136.705 135.72 136.294 135.386 135.884C135.159 136.096 134.946 136.309 134.749 136.492C134.552 136.674 134.355 136.872 134.172 137.054C133.99 137.237 133.778 137.435 133.566 137.632C133.353 137.83 133.126 138.043 132.853 138.286L132.868 138.271Z" fill="#BBAB8B"/>
<path d="M125.222 137.571C124.949 137.769 124.797 137.997 124.766 138.241C124.736 138.484 124.797 138.758 124.949 139.077C125.1 139.396 125.343 139.761 125.646 140.187C125.965 140.598 126.314 141.084 126.724 141.647L129.227 145.038C129.576 145.509 129.894 145.935 130.152 146.285C130.41 146.634 130.668 146.923 130.911 147.121C131.153 147.319 131.381 147.425 131.593 147.456C131.821 147.486 132.049 147.395 132.291 147.212L132.367 147.319C132.033 147.577 131.73 147.897 131.487 148.292C131.229 148.687 131.047 149.098 130.896 149.508C130.653 149.174 130.38 148.809 130.107 148.429C129.864 148.079 129.576 147.684 129.257 147.243C128.938 146.802 128.59 146.33 128.21 145.828L125.692 142.407C125.282 141.844 124.918 141.358 124.615 140.947C124.311 140.521 124.023 140.202 123.765 139.959C123.507 139.716 123.265 139.579 123.022 139.533C122.779 139.487 122.536 139.563 122.263 139.761L122.187 139.655L125.131 137.48L125.206 137.587L125.222 137.571Z" fill="#BBAB8B"/>
<path d="M122.718 141.86C123.067 142.453 123.189 143.031 123.098 143.608C123.007 144.186 122.809 144.779 122.506 145.372C122.203 145.965 121.838 146.574 121.429 147.197C121.019 147.821 120.67 148.459 120.367 149.098C120.64 149.356 120.883 149.584 121.095 149.782C121.307 149.98 121.505 150.132 121.702 150.223C121.884 150.33 122.066 150.375 122.233 150.39C122.4 150.39 122.582 150.36 122.749 150.254C123.007 150.101 123.189 149.873 123.325 149.569C123.462 149.265 123.568 148.946 123.674 148.626C123.78 148.292 123.887 147.988 124.008 147.684C124.129 147.38 124.311 147.167 124.554 147.03C124.751 146.923 124.949 146.893 125.146 146.939C125.343 146.984 125.48 147.121 125.555 147.334C125.555 147.486 125.495 147.684 125.373 147.942C125.237 148.201 125.055 148.49 124.827 148.794C124.6 149.098 124.311 149.402 123.993 149.691C123.674 149.995 123.325 150.254 122.946 150.466C122.4 150.786 121.884 150.907 121.399 150.831C120.913 150.755 120.443 150.573 119.988 150.269C119.532 149.965 119.093 149.584 118.653 149.143C118.213 148.702 117.773 148.261 117.302 147.851C116.635 147.243 116.073 146.741 115.649 146.361C115.224 145.981 114.845 145.692 114.541 145.494C114.238 145.296 113.965 145.22 113.722 145.22C113.479 145.22 113.221 145.296 112.948 145.464L112.888 145.357L114.587 144.369C114.723 144.293 114.845 144.247 114.951 144.232C115.057 144.217 115.178 144.232 115.3 144.293C115.421 144.353 115.558 144.46 115.709 144.597C115.861 144.734 116.058 144.916 116.286 145.144C116.347 145.205 116.468 145.327 116.65 145.494C116.832 145.661 117.044 145.874 117.287 146.102C117.53 146.33 117.788 146.589 118.061 146.847C118.334 147.106 118.607 147.364 118.85 147.608C118.592 146.939 118.395 146.285 118.273 145.631C118.152 144.977 118.122 144.369 118.167 143.791C118.228 143.213 118.379 142.696 118.622 142.24C118.865 141.768 119.229 141.403 119.715 141.115C120.033 140.932 120.337 140.826 120.625 140.78C120.928 140.734 121.201 140.75 121.459 140.826C121.717 140.902 121.96 141.023 122.172 141.206C122.385 141.388 122.567 141.601 122.718 141.844V141.86ZM121.732 142.726C121.52 142.346 121.216 142.118 120.852 142.012C120.473 141.905 120.109 141.966 119.73 142.179C119.35 142.407 119.062 142.681 118.88 143.031C118.698 143.38 118.577 143.745 118.516 144.141C118.471 144.536 118.471 144.947 118.516 145.388C118.577 145.813 118.668 146.224 118.774 146.604C118.88 146.984 119.032 147.334 119.168 147.638C119.32 147.942 119.457 148.185 119.578 148.353C119.684 148.444 119.775 148.535 119.866 148.626C119.957 148.718 120.048 148.824 120.154 148.931C120.382 148.368 120.655 147.821 120.943 147.288C121.232 146.741 121.474 146.209 121.687 145.692C121.884 145.175 122.005 144.658 122.051 144.171C122.096 143.684 121.975 143.198 121.702 142.726H121.732Z" fill="#BBAB8B"/>
<path d="M115.421 153.629C115.027 153.781 114.663 154.009 114.314 154.329C113.965 154.648 113.676 154.983 113.418 155.348C113.312 155.074 113.191 154.755 113.054 154.405C112.948 154.116 112.827 153.766 112.675 153.371C112.523 152.975 112.357 152.534 112.174 152.078C112.19 152.489 112.174 152.915 112.129 153.386C112.083 153.857 111.992 154.283 111.856 154.709C111.719 155.12 111.537 155.5 111.295 155.819C111.067 156.138 110.764 156.382 110.399 156.519C110.051 156.655 109.717 156.64 109.413 156.488C109.095 156.336 108.791 156.108 108.503 155.804C108.215 155.5 107.927 155.165 107.669 154.77C107.396 154.39 107.153 154.04 106.895 153.705C106.546 153.234 106.167 152.732 105.787 152.185C105.408 151.637 105.014 151.151 104.634 150.725C104.255 150.284 103.876 149.949 103.497 149.721C103.117 149.478 102.768 149.432 102.435 149.554L102.389 149.432L103.952 148.824C104.195 148.733 104.422 148.733 104.634 148.824C104.847 148.915 105.074 149.083 105.287 149.326C105.514 149.554 105.742 149.843 105.97 150.177C106.197 150.512 106.455 150.877 106.728 151.257C106.956 151.592 107.198 151.957 107.471 152.352C107.745 152.747 107.987 153.112 108.215 153.447C108.458 153.781 108.685 154.101 108.898 154.374C109.11 154.648 109.322 154.876 109.52 155.059C109.717 155.241 109.914 155.363 110.111 155.439C110.308 155.515 110.49 155.515 110.657 155.439C110.961 155.317 111.204 155.074 111.386 154.709C111.568 154.344 111.704 153.918 111.78 153.447C111.856 152.975 111.871 152.489 111.841 152.002C111.81 151.516 111.719 151.09 111.583 150.74L111.507 150.527C111.264 149.889 111.037 149.326 110.855 148.839C110.673 148.353 110.475 147.957 110.293 147.653C110.111 147.349 109.914 147.151 109.686 147.045C109.474 146.939 109.201 146.939 108.898 147.06L108.852 146.939L112.265 145.616L112.311 145.737C111.992 145.859 111.795 146.026 111.704 146.254C111.613 146.482 111.598 146.771 111.659 147.121C111.719 147.471 111.856 147.881 112.038 148.368C112.235 148.855 112.448 149.417 112.69 150.056C112.933 150.695 113.145 151.257 113.327 151.759C113.51 152.246 113.692 152.641 113.874 152.945C114.056 153.249 114.253 153.447 114.48 153.553C114.693 153.66 114.966 153.645 115.285 153.523L115.33 153.645L115.421 153.629Z" fill="#BBAB8B"/>
<path d="M103.466 153.416C103.648 154.207 103.664 154.937 103.512 155.637C103.375 156.321 103.117 156.944 102.753 157.492C102.389 158.039 101.949 158.51 101.418 158.891C100.887 159.271 100.326 159.56 99.7191 159.742C99.7646 159.833 99.8102 159.925 99.8405 159.986C99.886 160.062 99.9163 160.122 99.9467 160.168C99.977 160.229 100.007 160.29 100.038 160.335C100.22 160.655 100.387 160.944 100.523 161.187C100.66 161.43 100.781 161.628 100.902 161.795C101.024 161.962 101.16 162.054 101.297 162.13C101.433 162.206 101.6 162.206 101.798 162.16C101.949 162.13 102.086 162.084 102.207 162.023C102.329 161.962 102.465 161.902 102.632 161.81L102.662 161.932C102.465 162.054 102.268 162.19 102.071 162.342C101.873 162.495 101.691 162.631 101.494 162.753C101.297 162.875 101.145 162.996 100.993 163.088C100.842 163.179 100.72 163.24 100.614 163.27C100.478 163.3 100.356 163.3 100.265 163.255C100.159 163.209 100.083 163.133 99.9922 163.042C99.9012 162.951 99.8405 162.814 99.7495 162.677C99.6736 162.525 99.5826 162.373 99.4916 162.206C99.1426 161.521 98.7937 160.822 98.4296 160.138C98.1262 159.56 97.8076 158.936 97.4738 158.282C97.1249 157.629 96.8215 157.035 96.5332 156.503C96.245 155.986 95.9567 155.424 95.6533 154.831C95.3499 154.238 95.0465 153.69 94.7279 153.204C94.4093 152.717 94.0907 152.337 93.7569 152.048C93.4232 151.759 93.0742 151.652 92.7253 151.728L92.6949 151.607L94.3334 151.242C94.6672 151.166 94.9706 151.242 95.2285 151.5C95.4864 151.744 95.7443 152.109 96.0022 152.565C96.2146 151.987 96.5484 151.455 97.0035 150.999C97.4586 150.527 98.0352 150.223 98.733 150.056C99.4157 149.904 100.007 149.889 100.538 150.01C101.069 150.132 101.524 150.345 101.904 150.679C102.298 150.999 102.617 151.409 102.875 151.881C103.133 152.367 103.315 152.884 103.451 153.462L103.466 153.416ZM102.389 154.055C102.268 153.553 102.101 153.067 101.873 152.595C101.646 152.124 101.358 151.713 101.024 151.364C100.69 151.014 100.296 150.77 99.8708 150.603C99.4309 150.436 98.9606 150.421 98.4448 150.542C98.1413 150.603 97.8683 150.725 97.6407 150.877C97.398 151.029 97.1856 151.211 97.0035 151.409C96.8215 151.607 96.6698 151.835 96.5332 152.078C96.3967 152.322 96.2905 152.58 96.1995 152.839C96.2905 153.021 96.3815 153.219 96.4877 153.416C96.5939 153.614 96.6849 153.827 96.7911 154.04C97.2311 154.967 97.6862 155.895 98.1717 156.792C98.642 157.689 99.1275 158.602 99.6129 159.514C100.205 159.347 100.72 159.073 101.13 158.693C101.54 158.313 101.873 157.872 102.101 157.37C102.329 156.868 102.48 156.336 102.541 155.773C102.586 155.211 102.556 154.648 102.435 154.085L102.389 154.055Z" fill="#BBAB8B"/>
</g>
<defs>
<clipPath id="clip0_22_155">
<rect width="165" height="164" fill="white"/>
</clipPath>
</defs>
</svg>
